<?xml version="1.0" standalone="no"?>
<!DOCTYPE svg PUBLIC "-//W3C//DTD SVG 1.1//EN" "http://www.w3.org/Graphics/SVG/1.1/DTD/svg11.dtd">
<svg xmlns="http://www.w3.org/2000/svg">
<metadata>Generated by Fontastic.me</metadata>
<defs>
<font id="ln-icons" horiz-adv-x="512">
<font-face font-family="ln-icons" units-per-em="512" ascent="480" descent="-32"/>
<missing-glyph horiz-adv-x="512" />

<glyph glyph-name="ln-icon-alert" unicode="&#57344;" d="M509 58l-232 419c-5 8-13 11-21 11-8 0-16-5-19-11l-234-419c-1-4-3-7-3-12 0-12 11-24 24-24l466 0c12 0 24 12 24 24-2 5-4 8-5 12z m-253 296c16 0 30-15 30-29 0-77-12-141-12-141 0 0 0-6-5-11-3-3-7-5-11-5-13 0-16 10-16 16 0 0-13 64-13 141-3 11 11 29 27 29z m0-282c-19 0-34 14-34 34 0 19 15 33 34 33 19 0 34-14 34-33 0-20-15-34-34-34z"/>
<glyph glyph-name="ln-icon-alert-alt" unicode="&#57345;" d="M256 512c-141 0-256-115-256-256 0-141 115-256 256-256 141 0 256 115 256 256 0 141-115 256-256 256z m0-115c16 0 30-15 30-29 0-77-12-141-12-141 0 0 0-6-5-11-3-3-7-5-11-5-13 0-16 10-16 16 0 0-13 64-13 141-3 13 11 29 27 29z m0-282c-19 0-34 15-34 34 0 19 15 33 34 33 19 0 34-14 34-33 0-19-15-34-34-34z"/>
<glyph glyph-name="ln-icon-alert-alt-o" unicode="&#57346;" d="M256 512c-141 0-256-115-256-256 0-141 115-256 256-256 141 0 256 115 256 256 0 141-115 256-256 256z m0-488c-128 0-232 104-232 232 0 128 104 232 232 232 128 0 232-104 232-232 0-128-104-232-232-232z m0 373c-16 0-30-16-30-29 0-77 12-141 12-141 0-6 5-16 16-16 5 0 10 2 12 5 4 5 4 11 4 11 0 0 13 66 13 141 3 14-11 29-27 29z m34-248c0-19-15-34-34-34-19 0-34 15-34 34 0 18 15 33 34 33 19 0 34-15 34-33z"/>
<glyph glyph-name="ln-icon-alert-o" unicode="&#57347;" d="M509 58l-232 419c-5 8-13 11-21 11-8 0-16-5-19-11l-234-419c-1-4-3-7-3-12 0-12 11-24 24-24l466 0c12 0 24 12 24 24-2 5-4 8-5 12z m-43-12l-442 0 232 420 232-420z m-210 319c-16 0-30-16-30-29 0-77 12-141 12-141 0-6 5-16 16-16 5 0 10 2 12 5 4 5 4 11 4 11 0 0 13 66 13 141 3 16-11 29-27 29z m34-247c0-18-15-33-34-33-19 0-34 15-34 33 0 19 15 34 34 34 19 0 34-15 34-34z"/>
<glyph glyph-name="ln-icon-angle-down" unicode="&#57348;" d="M512 371c0 7-6 13-13 13-3 0-6-2-9-3l-234-223-234 223c-3 1-6 3-9 3-7 0-13-6-13-13 0-3 2-6 3-9l243-231c2-1 5-3 10-3 5 0 6 2 10 3l243 231c1 3 3 6 3 9z"/>
<glyph glyph-name="ln-icon-angle-left" unicode="&#57349;" d="M381 22l-223 234 223 234c1 3 3 6 3 9 0 7-6 13-13 13-3 0-6-2-9-3l-231-243c-1-4-3-7-3-10 0-3 2-6 3-10l231-243c1-3 4-3 9-3 7 0 13 6 13 13 0 3-2 6-3 9z"/>
<glyph glyph-name="ln-icon-angle-right" unicode="&#57350;" d="M384 256c0 3-2 6-3 10l-231 243c-3 1-6 3-9 3-7 0-13-6-13-13 0-3 2-6 3-9l223-234-223-234c-1-3-3-6-3-9 0-7 6-13 13-13 3 0 6 2 9 3l231 243c1 4 3 7 3 10z"/>
<glyph glyph-name="ln-icon-angle-up" unicode="&#57351;" d="M509 150l-243 231c-4 1-7 3-10 3-3 0-6-2-10-3l-243-231c-1-3-3-6-3-9 0-7 6-13 13-13 3 0 6 2 9 3l234 223 234-223c1-1 4-3 9-3 7 0 13 6 13 13 0 3-2 6-3 9z"/>
<glyph glyph-name="ln-icon-apps" unicode="&#57352;" d="M0 512l125 0 0-125-125 0z m194 0l124 0 0-125-124 0z m193 0l125 0 0-125-125 0z m-387-194l125 0 0-124-125 0z m194 0l124 0 0-124-124 0z m193 0l125 0 0-124-125 0z m-387-193l125 0 0-125-125 0z m194 0l124 0 0-125-124 0z m193 0l125 0 0-125-125 0z"/>
<glyph glyph-name="ln-icon-archive" unicode="&#57353;" d="M510 202l-70 256c-2 4-6 8-11 8l-74 0c-6 0-11-5-11-12 0-6 5-11 11-11l64 0 64-232-99 0c-58 0-70-70-93-70-24 0-35 0-35 0 0 0-11 0-35 0-24 0-35 70-93 70l-101 0 64 232 64 0c7 0 11 5 11 11 0 7-4 12-11 12l-73 0c-5 0-10-4-12-8l-70-256c0-2 0-2 0-4l0-185c0-8 5-13 11-13l488 0c7 0 11 5 11 11l0 187c2 2 2 2 0 4z m-184 100c-4 0-9-1-14-6l-37-37 0 234c0 9-8 19-19 19-11 0-19-10-19-19l0-232-37 37c-3 3-8 6-14 6-12 0-20-10-20-19 0-5 2-10 7-15l70-70c3-3 8-6 15-6 6 0 9 1 14 6l70 70c4 4 7 8 7 15-3 9-13 17-23 17z"/>
<glyph glyph-name="ln-icon-archive-o" unicode="&#57354;" d="M510 202l-70 256c-2 4-6 8-11 8l-74 0c-6 0-11-5-11-12 0-6 5-11 11-11l64 0 64-232-99 0c-58 0-70-70-93-70-24 0-35 0-35 0 0 0-11 0-35 0-24 0-35 70-93 70l-101 0 64 232 64 0c7 0 11 5 11 11 0 7-4 12-11 12l-73 0c-5 0-10-4-12-8l-70-256c0-2 0-2 0-4l0-185c0-8 5-13 11-13l488 0c7 0 11 5 11 11l0 187c2 2 2 2 0 4z m-22-178l-464 0 0 162c22 0 70 0 104 0 46 0 46-71 93-71l70 0c47 0 47 71 93 71 35 0 83 0 104 0z m-162 278c-4 0-9-1-14-6l-37-37 0 234c0 9-8 19-19 19-11 0-19-10-19-19l0-232-37 37c-3 3-8 6-14 6-12 0-20-10-20-19 0-5 2-10 7-15l70-70c3-3 8-6 15-6 6 0 9 1 14 6l70 70c4 4 7 8 7 15-3 9-13 17-23 17z"/>
<glyph glyph-name="ln-icon-bell" unicode="&#57355;" d="M189 51c8-30 35-51 67-51 32 0 59 21 67 51-21-3-43-3-67-3-24 0-46 0-67 3z m195 287c0 54-34 100-82 120 0 3 2 4 2 8-2 25-22 46-48 46-26 0-46-21-46-46 0-4 0-7 1-8-49-20-83-66-83-120 0-199-82-132-82-199 0-38 95-70 210-70 115 0 210 32 210 70 0 67-82 0-82 199z"/>
<glyph glyph-name="ln-icon-bell-o" unicode="&#57356;" d="M466 139c0 66-82 0-82 199 0 54-34 100-82 120 0 3 2 4 2 8-2 25-22 46-48 46-26 0-46-21-46-46 0-4 0-7 1-8-49-20-83-66-83-120 0-199-82-132-82-199 0-30 60-56 141-65 0-2 0-4 0-5 0-39 32-71 71-71 38 0 70 32 70 71 0 1 0 3 0 5 78 9 138 35 138 65z m-210 349c13 0 24-11 24-24 0 0 0-2 0-2-8 2-16 4-24 4-8 0-16-2-22-2 0 0 0 2 0 2-2 12 9 22 22 22z m0-464c-26 0-46 21-46 46 0 0 0 2 0 2 14-2 30-2 46-2 16 0 32 0 46 2 0 0 0-2 0-2 0-25-20-46-46-46z m186 115c0-25-84-46-186-46-102 0-186 21-186 46 0 45 82 0 82 199 0 57 46 104 104 104 58 0 104-47 104-104 0-199 82-154 82-199z"/>
<glyph glyph-name="ln-icon-bloomberg" unicode="&#57357;" d="M512 304c0-101 0-203 0-304-171 0-341 0-512 0 0 171 0 341 0 512 101 0 202 0 304 0 2-2 3-5 6-6 37-37 74-74 111-111 29-30 61-61 91-91z m-461-253c3 0 7 0 10 0 40 0 81 0 121 0 16 0 32 2 48 5 47 11 76 37 82 85 5 41-19 81-61 93-5 1-8 1-14 3 5 1 8 3 11 5 66 27 59 108 19 139-22 17-49 22-77 24-43 0-86 0-131 0-3 0-5 0-8 0 0-119 0-235 0-354z m64 55c0 33 0 67 0 100 34-1 67 4 101-4 22-7 32-20 34-42 1-21-8-38-28-46-8-4-17-7-27-7-27-1-54-1-80-1z m0 155c0 30 0 59 0 89 31-1 61 4 90-4 29-10 40-44 21-66-10-13-24-16-40-18-21-1-40 0-61 0-3-1-7-1-10-1z"/>
<glyph glyph-name="ln-icon-bloomberg-o" unicode="&#57358;" d="M293 488l16-16c30-30 62-62 93-93 20-21 43-43 64-64l20-21 0-270-462 0 0 464 269 0m-247-445l34 0c11 0 22 0 35 0 11 0 24 0 35 0 18 0 36 0 53 0 19 0 37 2 53 7 59 14 93 49 99 104 5 41-13 81-46 102 17 16 27 37 30 61 5 38-11 77-38 97-24 18-55 28-90 28-17 0-35 0-53 0-12 0-25 0-38 0-13 0-26 0-38 0l-36 0 0-399m258 469c-101 0-203 0-304 0 0-171 0-341 0-512 171 0 341 0 512 0 0 101 0 203 0 304-30 30-62 61-93 91-37 37-73 74-110 111-2 1-3 4-5 6z m-234-445c0 119 0 235 0 354 4 0 5 0 8 0 26 0 52 0 79 0 17 0 35 0 53 0 27 0 54-7 76-24 40-31 47-112-19-139-3-2-6-4-11-5 5-2 10-3 14-3 40-13 66-52 61-93-5-47-35-74-81-85-16-3-32-5-48-5-18 0-36 0-53 0-24 0-47 0-71 0-1 0-4 0-8 0z m116 133c12 0 28 0 43-5 11-3 16-6 16-21 0-11-3-19-13-24-5-1-13-4-19-4-10 0-21 0-34 0-8 0-14 0-22 0l0 54c3 0 8 0 11 0 6 0 11 0 18 0m0 22c-12 0-24 0-36 0-6 0-11 0-17 0 0-33 0-67 0-100 14 0 30 0 45 0 11 0 22 0 35 0 9 0 17 3 27 6 19 8 29 26 27 46-1 23-11 36-33 42-16 6-32 6-48 6z m-7 120c11 0 24 0 37-4 6-2 11-7 13-13 1-3 1-10-3-16-2-2-7-8-23-10-9 0-21 0-29 0l-17 0 0 43c1 0 5 0 6 0 5 0 10 0 16 0m0 24c-11 0-21 0-32 0-5 0-8 0-13 0 0-30 0-59 0-89 4 0 5 0 7 0 1 0 1 0 3 0 2 0 3 0 5 0 8 0 17 0 25 0 10 0 20 0 29 0 15 1 29 5 40 17 19 23 8 56-21 66-14 5-28 6-43 6z"/>
<glyph glyph-name="ln-icon-box-check" unicode="&#57359;" d="M398 512l-284 0c-63 0-114-51-114-114l0-284c0-63 51-114 114-114l284 0c63 0 114 51 114 114l0 284c0 63-51 114-114 114z m-24-200l-139-139c-3-3-8-7-14-7-7 0-10 2-15 7l-70 70c-3 3-6 8-6 15 0 11 9 19 19 19 5 0 9-2 14-7l56-56 127 127c3 3 8 6 14 6 11 0 19-9 19-19 2-8-1-13-5-16z"/>
<glyph glyph-name="ln-icon-box-check-o" unicode="&#57360;" d="M398 0l-284 0c-63 0-114 51-114 114l0 284c0 63 51 114 114 114l284 0c63 0 114-51 114-114l0-284c0-63-51-114-114-114z m90 398c0 50-40 90-90 90l-284 0c-50 0-90-40-90-90l0-284c0-50 40-90 90-90l284 0c50 0 90 40 90 90z m-128-52c-5 0-10-2-14-7l-127-126-56 56c-3 3-8 6-14 6-11 0-19-9-19-19 0-5 1-10 6-14l70-71c4-3 8-6 15-6 6 0 9 1 14 6l139 139c4 4 7 8 7 15 0 11-10 21-21 21z"/>
<glyph glyph-name="ln-icon-box-empty" unicode="&#57361;" d="M398 512l-284 0c-63 0-114-51-114-114l0-284c0-63 51-114 114-114l284 0c63 0 114 51 114 114l0 284c0 63-51 114-114 114z"/>
<glyph glyph-name="ln-icon-box-empty-o" unicode="&#57362;" d="M398 0l-284 0c-63 0-114 51-114 114l0 284c0 63 51 114 114 114l284 0c63 0 114-51 114-114l0-284c0-63-51-114-114-114z m90 398c0 50-40 90-90 90l-284 0c-50 0-90-40-90-90l0-284c0-50 40-90 90-90l284 0c50 0 90 40 90 90z"/>
<glyph glyph-name="ln-icon-box-minus" unicode="&#57363;" d="M398 512l-284 0c-63 0-114-51-114-114l0-284c0-63 51-114 114-114l284 0c63 0 114 51 114 114l0 284c0 63-51 114-114 114z m-25-275l-234 0c-11 0-19 8-19 19 0 11 10 19 19 19l232 0c11 0 19-9 19-19 0-10-8-19-17-19z"/>
<glyph glyph-name="ln-icon-box-minus-o" unicode="&#57364;" d="M398 512l-284 0c-63 0-114-51-114-114l0-284c0-63 51-114 114-114l284 0c63 0 114 51 114 114l0 284c0 63-51 114-114 114z m90-398c0-50-40-90-90-90l-284 0c-50 0-90 40-90 90l0 284c0 50 40 90 90 90l284 0c50 0 90-40 90-90z m-115 161l-234 0c-11 0-19-9-19-19 0-10 10-19 19-19l232 0c11 0 19 8 19 19 0 11-8 19-17 19z"/>
<glyph glyph-name="ln-icon-box-plus" unicode="&#57365;" d="M398 512l-284 0c-63 0-114-51-114-114l0-284c0-63 51-114 114-114l284 0c63 0 114 51 114 114l0 284c0 63-51 114-114 114z m-25-275l-96 0 0-96c0-11-10-19-19-19-10 0-20 9-20 19l0 96-96 0c-11 0-19 8-19 19 0 11 10 19 19 19l96 0 0 96c0 11 10 19 20 19 9 0 19-9 19-19l0-96 96 0c11 0 19-9 19-19 0-10-10-19-19-19z"/>
<glyph glyph-name="ln-icon-box-plus-o" unicode="&#57366;" d="M398 512l-284 0c-63 0-114-51-114-114l0-284c0-63 51-114 114-114l284 0c63 0 114 51 114 114l0 284c0 63-51 114-114 114z m90-398c0-50-40-90-90-90l-284 0c-50 0-90 40-90 90l0 284c0 50 40 90 90 90l284 0c50 0 90-40 90-90z m-115 161l-96 0 0 96c0 11-10 19-19 19-10 0-20-9-20-19l0-96-96 0c-11 0-19-9-19-19 0-10 10-19 19-19l96 0 0-96c0-11 10-19 20-19 9 0 19 9 19 19l0 96 96 0c11 0 19 8 19 19 0 11-10 19-19 19z"/>
<glyph glyph-name="ln-icon-box-x" unicode="&#57367;" d="M398 512l-284 0c-63 0-114-51-114-114l0-284c0-63 51-114 114-114l284 0c63 0 114 51 114 114l0 284c0 63-51 114-114 114z m-46-352c-3-3-10-6-14-6-5 0-10 1-15 6l-67 69-69-69c-8-8-21-8-27 0-8 8-8 21 0 27l69 69-69 69c-8 8-8 21 0 27 8 6 21 8 27 0l69-69 69 69c8 8 21 8 27 0 6-8 8-21 0-27l-69-69 69-69c8-8 8-19 0-27z"/>
<glyph glyph-name="ln-icon-box-x-o" unicode="&#57368;" d="M398 512l-284 0c-63 0-114-51-114-114l0-284c0-63 51-114 114-114l284 0c63 0 114 51 114 114l0 284c0 63-51 114-114 114z m90-398c0-50-40-90-90-90l-284 0c-50 0-90 40-90 90l0 284c0 50 40 90 90 90l284 0c50 0 90-40 90-90z m-136 73l-69 69 69 69c8 8 8 21 0 27-8 6-21 8-27 0l-69-69-69 69c-8 8-21 8-27 0-6-8-8-21 0-27l69-69-69-69c-8-8-8-21 0-27 8-8 21-8 27 0l69 69 69-69c3-3 9-6 14-6 5 0 10 1 15 6 6 8 6 19-2 27z"/>
<glyph glyph-name="ln-icon-bulb" unicode="&#57369;" d="M302 70l-92 0c-7 0-12-4-12-11 0-6 5-11 12-11l92 0c7 0 12 5 12 11 0 5-5 11-12 11z m-22-46l-46 0c-7 0-12-5-12-11 0-7 5-11 12-11l46 0c6 0 11 4 11 11 0 6-5 11-11 11z m-24 488c-102 0-186-88-186-198 0-79 44-146 104-178l0-32c0-6 5-11 12-11l57 0 0 198c-6 0-11 5-11 11 0 7 5 12 11 12l24 0c7 0 11-5 11-12 0-6-4-11-11-11l0-198 58 0c6 0 11 5 11 11l0 32c62 32 104 99 104 178 2 110-82 198-184 198z"/>
<glyph glyph-name="ln-icon-bulb-o" unicode="&#57370;" d="M256 512c-102 0-186-88-186-198 0-79 44-146 104-178l0-32c0-6 5-11 12-11l139 0c6 0 11 5 11 11l0 32c62 32 104 99 104 178 2 110-82 198-184 198z m58-360l0-35-117 0 0 35c-61 24-104 88-104 162 0 96 73 174 163 174 90 0 163-78 163-174 0-74-43-138-105-162z m-34-128l-46 0c-7 0-12-5-12-11 0-7 5-11 12-11l46 0c6 0 11 4 11 11 0 6-5 11-11 11z m22 46l-92 0c-7 0-12-4-12-11 0-6 5-11 12-11l92 0c7 0 12 5 12 11 0 5-5 11-12 11z m-35 221l0-174c0-7-5-11-11-11-6 0-11 4-11 11l0 174c0 7 5 11 11 11 6 0 11-4 11-11z m-22 23l24 0c6 0 11-5 11-12 0-6-5-11-11-11l-24 0c-7 0-11 5-11 11-2 7 4 12 11 12z"/>
<glyph glyph-name="ln-icon-chart" unicode="&#57371;" d="M245 490c-135 0-245-109-245-245 0-135 110-245 245-245 134 0 245 110 245 245l-245 0z m22 22l0-245 245 0c0 135-110 245-245 245z"/>
<glyph glyph-name="ln-icon-chart-alt" unicode="&#57372;" d="M267 512l0-240 226 82c-37 89-123 153-226 158z m-21-262c-1 1-3 4-3 6l0 256c-134-6-243-118-243-256 0-141 115-256 256-256 53 0 101 16 141 43z m255 81l-226-81 141-194c59 46 96 118 96 200 0 27-5 53-11 75z"/>
<glyph glyph-name="ln-icon-chart-alt-o" unicode="&#57373;" d="M256 512c-141 0-256-115-256-256 0-141 115-256 256-256 141 0 256 115 256 256 0 141-115 256-256 256z m11-24c91-5 170-62 203-142l-203-74z m-11-464c-128 0-232 104-232 232 0 125 98 226 221 232l0-232c0-3 1-5 1-6l138-189c-37-24-82-37-128-37z m146 51l-128 176 204 74c7-21 10-45 10-67 0-76-34-140-86-183z"/>
<glyph glyph-name="ln-icon-chart-o" unicode="&#57374;" d="M245 490l-13 0c-130-7-232-114-232-245 0-135 110-245 245-245 131 0 238 102 245 232l0 13-245 0z m219-269c-13-112-106-197-219-197-122 0-221 99-221 221 0 113 85 208 197 219l0-243z m48 59c-6 125-107 226-232 232l-13 0 0-245 245 0z m-221 11l0 195c104-11 184-92 195-195z"/>
<glyph glyph-name="ln-icon-chat" unicode="&#57375;" d="M512 238c0 68-62 122-139 122-77 0-139-54-139-122 0-67 62-121 139-121 5 0 11 0 16 1 22-9 49-30 70-70 0 0 11 48 5 99 29 23 48 55 48 91z m-179 141c-29 51-88 87-157 87-98 0-176-68-176-152 0-40 19-79 50-106-8-54 4-104 4-104 20 37 42 56 63 67 17-6 38-9 59-9 19 0 37 3 54 8-12 20-19 43-19 68-1 68 51 125 122 141z"/>
<glyph glyph-name="ln-icon-chat-alt" unicode="&#57376;" d="M419 488l-326 0c-51 0-93-42-93-93l0-185c0-52 42-93 93-93l24 0 0-93 129 93 173 0c51 0 93 41 93 93l0 185c0 51-42 93-93 93z"/>
<glyph glyph-name="ln-icon-chat-alt-o" unicode="&#57377;" d="M419 488l-326 0c-51 0-93-42-93-93l0-185c0-52 42-93 93-93l24 0 0-93 129 93 173 0c51 0 93 41 93 93l0 185c0 51-42 93-93 93z m69-278c0-39-32-71-70-71l-180 0-99-70 0 70-46 0c-39 0-71 32-71 71l0 185c0 39 32 71 71 71l326 0c39 0 71-32 71-71l0-185z"/>
<glyph glyph-name="ln-icon-chat-o" unicode="&#57378;" d="M512 238c0 68-62 122-139 122-11 0-21-2-31-3-22 62-88 109-168 109-96 0-174-68-174-152 0-40 19-79 50-106-8-54 4-104 4-104 20 37 42 56 63 67 17-6 38-9 59-9 27 0 53 4 77 16 24-37 69-63 121-63 5 0 12 0 16 2 23-10 50-31 71-71 0 0 11 48 5 100 27 24 46 56 46 92z m-272-40c-19-8-42-12-66-12-17 0-35 3-51 8l-9 3-8-5c-13-6-24-16-36-26 0 13 0 26 2 40l2 13-10 8c-27 24-42 55-42 88 0 71 68 128 152 128 69 0 127-38 144-91-51-18-86-62-86-114 2-14 3-27 8-40z m210-33l-12-8 2-13c2-13 2-24 2-35-13 13-29 24-45 30l-5 2-6 0c-5 0-10 0-15 0-43 0-80 19-101 49-1 4-4 7-6 10-2 3-3 6-5 11-3 10-5 19-5 29 0 40 29 75 69 90 3 1 7 3 11 3 4 1 8 1 12 3 8 2 16 2 25 2 64 0 117-45 117-100 0-27-14-54-38-73z"/>
<glyph glyph-name="ln-icon-check" unicode="&#57379;" d="M486 435c-6 0-12-3-17-8l-290-288-136 136c-5 5-11 8-17 8-15-1-26-13-26-27 0-6 3-13 8-18l154-153c4-5 11-8 17-8 7 0 13 3 18 8l307 307c5 5 8 11 8 18 0 14-11 25-26 25z"/>
<glyph glyph-name="ln-icon-check-alt" unicode="&#57380;" d="M466 488c-23 0-34-14-34-14l-264-284-90 88c-8 8-19 13-32 13-25 0-46-19-46-45 0-9 3-17 8-25l128-179c0 0 10-20 37-20 25 0 37 18 37 18l292 378c0 0 10 9 10 27 0 24-21 43-46 43z"/>
<glyph glyph-name="ln-icon-check-alt-o" unicode="&#57381;" d="M466 488c-23 0-34-14-34-14l-264-284-90 88c-8 8-19 13-32 13-25 0-46-19-46-45 0-9 3-17 8-25l128-179c0 0 10-20 37-20 25 0 37 18 37 18l292 378c0 0 10 9 10 27 0 24-21 43-46 43z m19-58l-293-374c-2-2-2-2-2-2-1-1-6-6-16-6-11 0-16 5-16 6 0 2 0 2-1 4l-128 176c0 0 0 1-2 1-1 3-3 7-3 13 0 11 10 21 22 21 7 0 12-2 16-7 0 0 2-1 2-1l88-85c5-5 10-6 16-6 6 0 13 3 16 8l266 280c-5-5 3 6 16 6 12 0 22-10 22-21 0-9-5-14-3-13z"/>
<glyph glyph-name="ln-icon-circle-angle-down" unicode="&#57382;" d="M256 512c-141 0-256-115-256-256 0-141 115-256 256-256 141 0 256 115 256 256 0 141-115 256-256 256z m147-214l-139-133c0 0-2-2-2-2 0 0-1 0-1-1-2 0-3-2-5-2-2 0-3 0-5 2 0 0-1 0-1 1 0 0-2 2-2 2l-139 133c-5 4-5 11 0 16 5 4 11 4 16 0l131-125 131 125c5 4 13 4 16 0 5-4 5-12 0-16z"/>
<glyph glyph-name="ln-icon-circle-angle-down-o" unicode="&#57383;" d="M256 512c-141 0-256-115-256-256 0-141 115-256 256-256 141 0 256 115 256 256 0 141-115 256-256 256z m0-488c-128 0-232 104-232 232 0 128 104 232 232 232 128 0 232-104 232-232 0-128-104-232-232-232z m147 290c-5 4-11 4-16 0l-131-124-131 125c-5 5-11 5-16 0-5-5-5-11 0-16l139-133c0 0 2-1 2-1 0 0 1 0 1-2 2 0 3-1 5-1 2 0 3 0 5 1 0 0 1 0 1 2 0 0 2 1 2 1l139 133c5 3 5 11 0 15z"/>
<glyph glyph-name="ln-icon-circle-angle-left" unicode="&#57384;" d="M256 512c-141 0-256-115-256-256 0-141 115-256 256-256 141 0 256 115 256 256 0 141-115 256-256 256z m58-403c-2-2-5-3-8-3-4 0-7 1-8 3l-133 139c0 0 0 2-2 2 0 0-1 1-1 1 0 0 0 2 0 2 0 0 0 1 0 1 0 0 0 2 0 2 0 0 0 2 0 2 0 0 1 1 1 1 0 0 0 2 2 2l133 139c4 5 11 5 16 0 4-5 4-11 0-16l-124-128 125-131c3-5 3-13-1-16z"/>
<glyph glyph-name="ln-icon-circle-angle-left-o" unicode="&#57385;" d="M256 512c-141 0-256-115-256-256 0-141 115-256 256-256 141 0 256 115 256 256 0 141-115 256-256 256z m0-488c-128 0-232 104-232 232 0 128 104 232 232 232 128 0 232-104 232-232 0-128-104-232-232-232z m93 230c0 0 0 2 0 2 0 0 0 2 0 2 0 0 0 1 0 1 0 0-2 2-2 2 0 0 0 1-1 1l-133 140c-5 4-11 4-16 0-5-5-5-12 0-16l125-132-125-131c-5-5-5-11 0-16 1-1 5-3 8-3 3 0 6 2 8 3l133 139c0 0 0 2 1 2 0 0 2 2 2 2 0 3 0 3 0 4z"/>
<glyph glyph-name="ln-icon-circle-angle-right" unicode="&#57386;" d="M256 512c-141 0-256-115-256-256 0-141 115-256 256-256 141 0 256 115 256 256 0 141-115 256-256 256z m93-258c0 0 0-1 0-1 0 0-2-2-2-2 0 0 0-1-1-1l-133-140c-2-1-5-3-8-3-3 0-7 2-8 3-5 5-5 12 0 16l125 132-125 131c-5 5-5 11 0 16 5 5 13 5 16 0l133-139c0 0 0-2 1-2 0 0 2-2 2-2 0 0 0-1 0-1 0 0 0-2 0-2 0 0 1-5 0-5z"/>
<glyph glyph-name="ln-icon-circle-angle-right-o" unicode="&#57387;" d="M256 512c-141 0-256-115-256-256 0-141 115-256 256-256 141 0 256 115 256 256 0 141-115 256-256 256z m0-488c-128 0-232 104-232 232 0 128 104 232 232 232 128 0 232-104 232-232 0-128-104-232-232-232z m59 101l-125 131 125 131c5 5 5 11 0 16-5 5-13 5-16 0l-133-139c0 0 0-2-1-2 0 0-2-1-2-1 0 0 0-2 0-2 0 0 0-1 0-1 0 0 0-2 0-2 0 0 0-2 0-2 0 0 2-1 2-1 0 0 0-2 1-2l133-139c2-2 5-3 8-3 3 0 7 1 8 3 3 0 3 8 0 13z"/>
<glyph glyph-name="ln-icon-circle-angle-up" unicode="&#57388;" d="M256 512c-141 0-256-115-256-256 0-141 115-256 256-256 141 0 256 115 256 256 0 141-115 256-256 256z m147-314c-1-1-5-3-8-3-3 0-6 2-8 3l-131 124-131-125c-2-2-5-3-8-3-3 0-7 1-8 3-5 5-5 11 0 16l139 133c0 0 2 0 2 1 0 0 1 2 1 2 0 0 2 0 2 0 0 0 1 0 1 0 0 0 2 0 2 0 0 0 2 0 2 0 0 0 1-2 1-2 0 0 2 0 2-1l139-133c8-3 8-11 3-15z"/>
<glyph glyph-name="ln-icon-circle-angle-up-o" unicode="&#57389;" d="M256 512c-141 0-256-115-256-256 0-141 115-256 256-256 141 0 256 115 256 256 0 141-115 256-256 256z m0-488c-128 0-232 104-232 232 0 128 104 232 232 232 128 0 232-104 232-232 0-128-104-232-232-232z m147 190l-139 133c0 0-2 0-2 2 0 0-1 1-1 1 0 0-2 0-2 0 0 0-1 0-1 0 0 0-2 0-2 0 0 0-2 0-2 0 0 0-1 0-1-1 0 0-2 0-2-2l-139-133c-5-4-5-11 0-16 2-1 5-3 8-3 3 0 6 2 8 3l131 125 131-125c2-1 5-3 8-3 4 0 7 2 8 3 2 4 2 12-3 16z"/>
<glyph glyph-name="ln-icon-circle-empty" unicode="&#57390;" d="M512 256c0-141-115-256-256-256-141 0-256 115-256 256 0 141 115 256 256 256 141 0 256-115 256-256z"/>
<glyph glyph-name="ln-icon-circle-empty-o" unicode="&#57391;" d="M256 512c-141 0-256-115-256-256 0-141 115-256 256-256 141 0 256 115 256 256 0 141-115 256-256 256z m0-488c-128 0-232 104-232 232 0 128 104 232 232 232 128 0 232-104 232-232 0-128-104-232-232-232z"/>
<glyph glyph-name="ln-icon-circle-plus" unicode="&#57392;" d="M256 512c-141 0-256-115-256-256 0-141 115-256 256-256 141 0 256 115 256 256 0 141-115 256-256 256z m117-275l-96 0 0-96c0-11-10-19-19-19-10 0-20 9-20 19l0 96-96 0c-11 0-19 8-19 19 0 11 10 19 19 19l96 0 0 96c0 11 10 19 20 19 9 0 19-9 19-19l0-96 96 0c11 0 19-9 19-19 0-10-10-19-19-19z"/>
<glyph glyph-name="ln-icon-circle-plus-o" unicode="&#57393;" d="M256 512c-141 0-256-115-256-256 0-141 115-256 256-256 141 0 256 115 256 256 0 141-115 256-256 256z m0-488c-128 0-232 104-232 232 0 128 104 232 232 232 128 0 232-104 232-232 0-128-104-232-232-232z m117 251l-96 0 0 96c0 11-10 19-19 19-10 0-20-9-20-19l0-96-96 0c-11 0-19-9-19-19 0-10 10-19 19-19l96 0 0-96c0-11 10-19 20-19 9 0 19 9 19 19l0 96 96 0c11 0 19 8 19 19 0 11-10 19-19 19z"/>
<glyph glyph-name="ln-icon-circle-x" unicode="&#57394;" d="M256 512c-141 0-256-115-256-256 0-141 115-256 256-256 141 0 256 115 256 256 0 141-115 256-256 256z m96-352c-3-3-10-6-14-6-5 0-10 1-15 6l-67 69-69-69c-8-8-21-8-27 0-8 8-8 21 0 27l69 69-69 69c-8 8-8 21 0 27 8 6 21 8 27 0l69-69 69 69c8 8 21 8 27 0 6-8 8-21 0-27l-69-69 69-69c8-8 8-19 0-27z"/>
<glyph glyph-name="ln-icon-circle-x-o" unicode="&#57395;" d="M437 437c-99 99-263 99-362 0-99-99-99-263 0-362 99-99 263-99 362 0 101 99 101 263 0 362z m-16-346c-91-91-239-91-330 0-91 91-91 239 0 330 91 91 239 91 330 0 91-91 91-239 0-330z m-69 96l-69 69 69 69c8 8 8 21 0 27-8 6-21 8-27 0l-69-69-69 69c-8 8-21 8-27 0-6-8-8-21 0-27l69-69-69-69c-8-8-8-21 0-27 8-8 21-8 27 0l69 69 69-69c3-3 9-6 14-6 5 0 10 1 15 6 6 8 6 19-2 27z"/>
<glyph glyph-name="ln-icon-compare" unicode="&#57396;" d="M208 238c2-1 5-3 8-3 6 0 11 5 11 11 0 4-1 7-3 8l-107 108 305 0c7 0 12 4 12 11 0 6-5 11-12 11l-305 0 107 109c2 1 3 5 3 8 0 6-5 11-11 11-3 0-6-2-8-3l-128-128c-2-2-3-5-3-8 0-3 1-7 3-8z m96 36c-2 1-5 3-8 3-6 0-11-5-11-11 0-4 1-7 3-8l107-108-305 0c-7 0-12-4-12-11 0-6 5-11 12-11l305 0-107-109c-2-1-3-5-3-8 0-6 5-11 11-11 3 0 6 2 8 3l128 128c2 2 3 5 3 8 0 3-1 7-3 8z"/>
<glyph glyph-name="ln-icon-compare-alt" unicode="&#57397;" d="M360 512c-32 0-58-26-58-58 0-28 20-51 47-57l0-71c0-38-32-70-71-70l-116 0 0 141c27 5 46 29 46 57 0 32-26 58-58 58-32 0-57-26-57-58 0-28 19-51 46-57l0-282c-27-5-46-29-46-57 0-32 25-58 57-58 32 0 58 26 58 58 0 28-19 51-46 57l0 117 116 0c52 0 93 42 93 93l0 72c27 5 47 29 47 57 1 32-24 58-58 58z"/>
<glyph glyph-name="ln-icon-compare-alt-o" unicode="&#57398;" d="M360 512c-32 0-58-26-58-58 0-28 20-51 47-57l0-71c0-38-32-70-71-70l-116 0 0 141c27 5 46 29 46 57 0 32-26 58-58 58-32 0-57-26-57-58 0-28 19-51 46-57l0-282c-27-5-46-29-46-57 0-32 25-58 57-58 32 0 58 26 58 58 0 28-19 51-46 57l0 117 116 0c52 0 93 42 93 93l0 72c27 5 47 29 47 57 1 32-24 58-58 58z m-174-454c0-20-16-36-36-36-19 0-35 16-35 36 0 19 16 35 35 35 21 0 36-16 36-35z m-34 361c-19 0-35 16-35 35 0 20 16 36 35 36 19 0 35-16 35-36-1-19-16-35-35-35z m208 0c-19 0-35 16-35 35 0 20 16 36 35 36 19 0 35-16 35-36 0-19-14-35-35-35z"/>
<glyph glyph-name="ln-icon-copy" unicode="&#57399;" d="M466 419l-93 93 0-93z m-221-141c-7 0-11 5-11 12l0 105-164 0c-12 0-24-11-24-24l0-349c0-12 12-24 24-24l256 0c13 0 24 12 24 24l0 256z m22-193l-139 0c-6 0-11 5-11 11 0 6 5 11 11 11l139 0c7 0 11-5 11-11 0-6-4-11-11-11z m-150 70c0 7 5 11 11 11l93 0c6 0 11-4 11-11 0-6-5-11-11-11l-93 0c-6-2-11 5-11 11z m150 47l-139 0c-6 0-11 4-11 11 0 6 5 11 11 11l139 0c7 0 11-5 11-11 2-7-4-11-11-11z m93 193c-6 0-11 5-11 11l0 106-163 0c-13 0-24-11-24-24l0-53 104 0 121-121 0-199 53 0c13 0 24 11 24 24l0 256z m-104-93l93 0-93 93z"/>
<glyph glyph-name="ln-icon-copy-alt-o" unicode="&#57400;" d="M267 109l-139 0c-6 0-11-5-11-11 0-7 5-12 11-12l139 0c7 0 11 5 11 12 0 6-4 11-11 11z m-197 286c-12 0-24-11-24-24l0-349c0-12 12-24 24-24l256 0c13 0 24 12 24 24l0 280-94 93z m256-371l-256 0 0 349 164 0 0-82c0-6 4-11 11-11l81 0z m-70 278l0 58 58-58z m-128-160l93 0c6 0 11 5 11 12 0 6-5 11-11 11l-93 0c-6 0-11-5-11-11 0-5 5-12 11-12z m245 370l-187 0c-13 0-24-11-24-24l0-40c0-6 4-11 11-11 6 0 11 5 11 11l0 40 163 0 0-82c0-6 5-11 11-11l82 0 0-256-40 0c-6 0-11-5-11-11 0-6 5-11 11-11l40 0c13 0 24 11 24 24l0 278z m0-93l0 58 57-58z m-256-206c0-7 5-11 11-11l139 0c7 0 11 4 11 11 0 6-4 11-11 11l-139 0c-6 0-11-5-11-11z"/>
<glyph glyph-name="ln-icon-copy-o" unicode="&#57401;" d="M360 163l-208 0c-6 0-11-5-11-11 0-6 5-11 11-11l210 0c6 0 11 5 11 11 0 6-7 11-13 11z m-221 128c0-6 5-11 11-11l210 0c6 0 11 5 11 11 0 7-5 11-11 11l-208 0c-6 0-13-4-13-11z m13-81l139 0c7 0 11 4 11 11 0 6-4 11-11 11l-139 0c-6 0-11-5-11-11-2-7 5-11 11-11z m267 232l-70 0 0 24c0 12-11 24-24 24l-58 0 0 11c0 6-5 11-11 11-6 0-11-5-11-11l0-11-58 0c-13 0-24-12-24-24l0-24-70 0c-13 0-23-10-23-23l0-395c0-13 10-24 23-24l326 0c13 0 24 11 24 24l0 395c-1 13-11 23-24 23z m-233 24l139 0 0-71-139 0z m233-442l-53 0 53 53z m0 85l-86-87-240 0 0 397 70 0 0-24c0-13 11-24 24-24l139 0c13 0 24 11 24 24l0 24 71 0 0-310z"/>
<glyph glyph-name="ln-icon-copyt-alt" unicode="&#57402;" d="M419 0c13 0 24 11 24 24l0 77-101-101z m-93 488l-57 0 0 13c-2 6-7 11-13 11-6 0-11-5-11-11l0-11-58 0 0-93 139 0z m93-46l-70 0 0-47c0-13-11-24-24-24l-139 0c-13 0-24 11-24 24l0 47-69 0c-13 0-23-10-23-23l0-395c0-13 10-24 23-24l216 0 133 133 0 286c0 13-10 23-23 23z m-59-303l-208 0c-6 0-11 5-11 11 0 7 5 12 11 12l210 0c6 0 11-5 11-12 0-4-7-11-13-11z m-221 82c0 6 5 11 11 11l140 0c6 0 11-5 11-11 0-7-5-11-11-11l-138 0c-6 0-13 4-13 11z m221 59l-208 0c-6 0-11 5-11 11 0 7 5 11 11 11l210 0c6 0 11-4 11-11 0-6-7-11-13-11z"/>
<glyph glyph-name="ln-icon-dislike" unicode="&#57403;" d="M461 211c-26-1-88-1-115-3-7 0-15-3-20-10-3-4-3-12 0-20 10-29 16-53 10-87-8-33-34-54-54-56-13-1-23 3-26 15-5 11-6 25-8 41-3 21-6 48-18 79-20 52-44 86-99 86l-13 0 0 186 13 0c0 0 2 0 3 0 5 0 18 0 40 1 15 2 37 8 56 11 42 8 117 20 160 24 36-8 48-27 76-65 16-26 48-82 48-120-2-26-10-72-53-82z m-461 229l88 0 0-186-88 0z"/>
<glyph glyph-name="ln-icon-dislike-o" unicode="&#57404;" d="M461 211c-26-1-88-1-115-3-7 0-15-3-20-10-3-4-3-12 0-20 10-29 16-53 10-87-8-33-34-54-54-56-13-1-23 3-26 15-5 11-6 25-8 41-3 21-6 48-18 77-20 51-44 86-99 86l-13 0 0 186 13 0c0 0 2 0 3 0 5 0 18 0 40 2 15 1 37 8 56 11 42 8 117 19 160 24 36-8 48-27 76-64 16-26 48-80 48-120-2-26-10-71-53-82z m-16 187l-3 5c-24 32-34 43-55 50-43-5-115-16-153-24-7-2-15-3-23-5-13-3-25-6-37-6-14 0-25-2-33-2l0-139c64-5 91-53 109-101 12-32 16-61 19-83 1-15 3-27 6-35 0 0 3-2 10 1 9 5 22 16 27 35 5 26 2 44-10 74-4 16-4 30 4 42 4 8 16 17 36 19 18 1 47 1 77 3 15 0 27 0 37 2 29 8 32 46 32 57 2 24-16 64-43 107z m-445 42l88 0 0-186-88 0z m24-163l40 0 0 139-40 0z"/>
<glyph glyph-name="ln-icon-edit" unicode="&#57405;" d="M488 422l-13-12z m-82-120c-3 0-6-1-8-3l-148-149-130-30 30 130 149 148c2 2 3 5 3 8 0 7-4 12-11 12l-267 0c-13 1-24-10-24-23l0-373c0-11 11-22 24-22l373 0c13 0 24 11 24 24l0 267c-2 7-8 11-15 11z m100 170l-34 34c-10 9-24 9-34 0l-16-16 68-68 16 16c8 10 8 24 0 34z m-101 0l-237-238-16-84 83 16 240 244-5-5z"/>
<glyph glyph-name="ln-icon-edit-o" unicode="&#57406;" d="M488 422l-14-14z m18 50l-34 34c-10 9-24 9-34 0l-16-16 68-68 16 16c8 10 8 24 0 34z m-100-194c-6 0-11-4-11-11l0-245-371 0 0 373 245 0c6 0 11 5 11 11 0 7-5 12-11 12l-245 0c-13 1-24-10-24-23l0-373c0-11 11-22 24-22l373 0c13 0 24 11 24 24l0 243c-2 7-8 11-15 11z m48 144l-230-232-32 2-3 30 233 234-16 16-238-238-16-84 83 16 240 240-1-1z"/>
<glyph glyph-name="ln-icon-export" unicode="&#57407;" d="M101 256c0 11 9 19 19 19l229 0 0 144c0 13-11 24-24 24l-301 0c-13-1-24-11-24-24l0-326c0-13 11-24 24-24l302 0c13 0 24 11 24 24l0 144-230 0c-11 0-19 8-19 19z m248-19l96 0-37-37c-3-3-6-8-6-14 0-12 9-20 19-20 5 0 9 2 14 7l71 70c3 3 6 8 6 15 0 6-2 9-6 14l-71 70c-3 4-8 7-14 7-11 0-19-10-19-19 0-5 1-10 6-15l37-37-96 0z"/>
<glyph glyph-name="ln-icon-export-o" unicode="&#57408;" d="M338 346c6 0 11 4 11 11l0 62c0 13-11 24-24 24l-301 0c-13-1-24-11-24-24l0-326c0-13 11-24 24-24l302 0c13 0 24 11 24 24l0 62c0 7-4 11-11 11-6 0-11-4-11-11l0-62-304 0 0 326 302 0 0-62c0-7 5-11 12-11z m168-76l-71 71c-3 3-8 6-14 6-11 0-19-9-19-19 0-5 1-10 6-14l37-37-325 0c-11 0-19-10-19-19 0-10 9-20 19-20l325 0-37-36c-3-4-6-8-6-15 0-11 9-19 19-19 5 0 9 2 14 6l71 71c3 3 6 8 6 14 0 7-2 7-6 11z"/>
<glyph glyph-name="ln-icon-eye" unicode="&#57409;" d="M256 395c-118 0-256-102-256-139 0-37 138-139 256-139 118 0 256 102 256 139 0 37-138 139-256 139z m0-254c-64 0-115 51-115 115 0 64 51 115 115 115 64 0 115-51 115-115 0-64-51-115-115-115z m46 115c0-26-20-46-46-46-26 0-46 20-46 46 0 26 20 46 46 46 26 0 46-20 46-46z"/>
<glyph glyph-name="ln-icon-eye-o" unicode="&#57410;" d="M256 395c-118 0-256-102-256-139 0-37 138-139 256-139 118 0 256 102 256 139 0 37-138 139-256 139z m0-243c-58 0-104 46-104 104 0 58 46 104 104 104 58 0 104-46 104-104 0-58-46-104-104-104z m-230 104c0 21 72 77 153 102-30-22-51-60-51-102 0-42 21-80 53-102-82 25-155 81-155 102z m307-102c32 24 53 60 53 102 0 42-21 80-53 102 81-25 153-83 153-102 0-21-73-77-153-102z m-31 102c0-26-20-46-46-46-26 0-46 20-46 46 0 26 20 46 46 46 26 0 46-20 46-46z"/>
<glyph glyph-name="ln-icon-file" unicode="&#57411;" d="M326 512l0-139 140 0z m-24-152l0 152-232 0c-12 0-24-11-24-24l0-466c0-12 12-24 24-24l373 0c13 0 24 12 24 24l0 327-152 0c-8 0-13 5-13 11z"/>
<glyph glyph-name="ln-icon-file-o" unicode="&#57412;" d="M326 512l-256 0c-12 0-24-11-24-24l0-466c0-12 12-24 24-24l373 0c13 0 24 12 24 24l0 351z m0-35l104-104-104 0z m116-453l-372 0 0 464 232 0 0-128c0-6 5-11 12-11l128 0z"/>
<glyph glyph-name="ln-icon-flag" unicode="&#57413;" d="M466 486l-18-11c0 0-34-21-98-21-44 0-76 15-107 29-30 15-61 29-104 29-89 0-93-42-93-46l0-466 24 0 0 210c0 1 5 24 71 24 37 0 64-13 93-28 32-16 67-32 116-32 72 0 111 24 111 26l5 3z"/>
<glyph glyph-name="ln-icon-flag-o" unicode="&#57414;" d="M466 486l-18-11c0 0-34-21-98-21-44 0-76 15-107 29-30 15-61 29-104 29-89 0-93-42-93-46l0-466 24 0 0 210c0 1 5 24 71 24 37 0 64-13 93-28 32-16 67-32 116-32 72 0 111 24 111 26l5 3z m-24-270c-12-6-44-19-93-19-45 0-77 14-107 29-31 14-61 28-103 28-35 0-56-6-70-14l0 226c0 1 5 24 70 24 37 0 64-13 93-28 32-16 67-32 117-32 45 0 75 10 93 16z"/>
<glyph glyph-name="ln-icon-globe" unicode="&#57415;" d="M256 512c-141 0-256-115-256-256 0-141 115-256 256-256 141 0 256 115 256 256 0 141-115 256-256 256z m-70-226c-36-8-8-33-8-33 35-18 17-26 17-26-25 8-53 26-53 26 0 0-35 25-25 43 8 18 25 43 0 69-10 9-19 16-27 19 12 16 28 30 46 43 10-24 50-48 50-48 17 43 43 18 43 18 8 17 43 8 25-8-17-18-52-8-25-34 25-25 8 18 43 18 35 0 35-34 18-34-18 0-8-8-44-25-35-18-17-44-35-44-17-1 0 24-25 16z m123-139c-24-24-29-78-35-81-8-4-13 8-21 16-8 8-16 24-8 65 0 0-32 8-32 58 0 24 25 41 65 24 29-13 21-16 32-24 13-11 23-34-1-58z m67 147c0 60 69 50 40 82-22 26-48-22-74-22-25 0-8 51-8 51-35 0-17 25-8 33 4 4 5 8 4 13 80-29 137-105 137-197 0-19-3-38-8-56-32 18-83 53-83 96z"/>
<glyph glyph-name="ln-icon-globe-o" unicode="&#57416;" d="M246 312c36 18 26 26 44 26 17 0 17 33-18 33-35 0-18-43-43-17-26 25 8 17 25 33 18 18-17 26-25 8 0 0-26 26-43-17 0 0-40 24-50 48-18-12-34-26-48-44 8-3 18-9 27-19 26-25 8-51 0-69-8-17 26-43 26-43 0 0 25-17 53-25 0 0 17 8-18 25 0 0-26 26 8 34 26 8 8-18 26-18 19 2 1 27 36 45z m63-107c-11 8-3 11-32 24-40 17-66 0-66-24 0-50 32-58 32-58-8-41 0-57 8-65 8-8 15-21 21-16 8 4 11 57 35 81 26 24 16 47 2 58z m19 248c0-5 0-10-3-13-8-8-26-34 8-34 0 0-18-51 8-51 25 0 53 48 73 23 29-32-40-23-40-82 0-43 52-78 82-94 5 17 8 36 8 56 2 89-56 166-136 195z m-72 59c-141 0-256-115-256-256 0-141 115-256 256-256 141 0 256 115 256 256 0 141-115 256-256 256z m0-488c-128 0-232 104-232 232 0 128 104 232 232 232 128 0 232-104 232-232 0-128-104-232-232-232z"/>
<glyph glyph-name="ln-icon-graph" unicode="&#57417;" d="M419 430l0-348 93 0 0 348z m-280-348l93 0 0 302-93 0z m-139 0l93 0 0 163-93 0z m280 0l93 0 0 256-93 0z"/>
<glyph glyph-name="ln-icon-graph-alt" unicode="&#57418;" d="M267 501c0 6-5 11-11 11-6 0-11-5-11-11l0-35 24 0 0 35z m221-59l-464 0c-13 0-24-10-24-23l0-302c0-13 11-24 24-24l165 0-47-75c-1-2-1-4-1-7 0-6 5-11 11-11 5 0 8 2 10 5l54 88 80 0 54-88c2-3 5-5 10-5 6 0 11 5 11 11 0 2-1 5-1 7l-47 75 165 0c13 0 24 11 24 24l0 302c0 13-11 23-24 23z m-46-175c0-6-5-11-12-11-6 0-11 5-11 11l0 42-96-96c-1-2-5-3-8-3-3 0-6 1-8 3l-85 85-131-132c-1-1-5-3-8-3-6 0-11 5-11 11 0 4 2 7 3 8l139 140c2 1 5 3 8 3 4 0 7-2 8-3l85-85 88 88-41 0 0 24 70 0c6 0 11-5 11-11l0-71z"/>
<glyph glyph-name="ln-icon-graph-alt-o" unicode="&#57419;" d="M488 442l-464 0c-13 0-24-10-24-23l0-302c0-13 11-24 24-24l165 0-47-75c-1-2-1-4-1-7 0-6 5-11 11-11 5 0 8 2 10 5l54 88 80 0 54-88c2-3 5-5 10-5 6 0 11 5 11 11 0 2-1 5-1 7l-47 75 165 0c13 0 24 11 24 24l0 302c0 13-11 23-24 23z m0-325l-464 0 0 302 466 0 0-302z m-221 384c0 6-5 11-11 11-6 0-11-5-11-11l0-35 24 0 0 35z m-185-338c3 0 6 2 8 3l131 132 85-85c1-2 4-3 8-3 3 0 6 1 8 3l96 96 0-42c0-6 4-11 11-11 6 0 11 5 11 11l0 71c0 6-5 11-11 11l-71 0c-6 0-11-5-11-11 0-7 5-12 11-12l42 0-88-88-85 85c-1 2-5 3-8 3-3 0-6-1-8-3l-139-139c-2-2-3-5-3-8 1-8 6-13 13-13z"/>
<glyph glyph-name="ln-icon-graph-o" unicode="&#57420;" d="M0 82l93 0 0 163-93 0z m24 139l46 0 0-117-46 0z m395 209l0-348 93 0 0 348z m69-326l-46 0 0 304 46 0z m-349-22l93 0 0 302-93 0z m24 278l47 0 0-256-47 0z m117-278l93 0 0 256-93 0z m22 232l47 0 0-210-47 0z"/>
<glyph glyph-name="ln-icon-heart" unicode="&#57421;" d="M512 344c0 80-66 146-146 146-44 0-83-20-110-52-27 32-66 52-110 52-80 0-146-66-146-146 0-2 0-3 0-6 0-168 202-258 256-314 54 56 256 147 256 314 0 1 0 3 0 6z"/>
<glyph glyph-name="ln-icon-heart-o" unicode="&#57422;" d="M512 344c0 80-66 146-146 146-44 0-83-20-110-52-27 32-66 52-110 52-80 0-146-66-146-146 0-2 0-3 0-6 0-168 202-258 256-314 54 56 256 147 256 314 0 1 0 3 0 6z m-256-291c-18 27-232 121-232 285 0 1 0 3 0 6 0 67 54 122 122 122 49 0 91-29 110-71 19 42 61 71 110 71 68 0 122-55 122-122 0-2 0-3 0-6 0-164-214-258-232-285z"/>
<glyph glyph-name="ln-icon-help" unicode="&#57423;" d="M256 512c-141 0-256-115-256-256 0-141 115-256 256-256 141 0 256 115 256 256 0 141-115 256-256 256z m22-387c-6-7-12-10-20-10-8 0-16 3-21 10-7 6-10 13-10 22 0 8 3 16 10 23 11 12 30 12 43 0 6-7 10-13 10-23 0-9-7-16-12-22z m53 173c-3-8-6-15-11-21l-24-26c-3-3-6-6-8-8-2-1-3-3-3-6-2-2-2-5-2-7 0-3 0-6 0-11l0-14-48 0 0 19c0 6 0 13 2 18 1 4 3 9 5 12 1 5 4 8 8 12 3 3 6 6 11 11 3 3 6 6 11 11 3 3 6 6 10 10 3 3 4 6 6 11 2 3 2 6 2 11 0 5 0 8-2 11-2 3-3 7-6 10-2 3-5 5-8 6-4 2-7 2-12 2-9 0-16-3-20-8-7-7-10-15-10-24l-2-8-54 8 2 8c3 22 12 40 27 53 14 12 33 19 54 19 10 0 21-2 29-5 10-3 18-8 24-14 6-7 13-15 16-23 3-9 6-19 6-30 2-11 0-19-3-27z"/>
<glyph glyph-name="ln-icon-help-o" unicode="&#57424;" d="M256 512c-141 0-256-115-256-256 0-141 115-256 256-256 141 0 256 115 256 256 0 141-115 256-256 256z m0-488c-128 0-232 104-232 232 0 128 104 232 232 232 128 0 232-104 232-232 0-128-104-232-232-232z m74 330c-4 9-10 17-16 22-7 6-15 11-24 14-10 4-20 5-29 5-23 0-40-6-55-19-14-13-24-30-27-53l-3-6 51-5 2 8c1 10 5 18 9 24 5 6 13 8 21 8 3 0 8 0 11-2 4-1 7-3 8-6 4-3 5-6 7-10 1-3 1-8 1-11 0-5 0-8-1-11-2-3-3-8-7-11-3-3-6-7-9-10-3-3-7-6-11-11-5-5-8-8-12-11-3-3-6-8-8-11-1-4-3-8-4-13-2-5-2-11-2-18l0-19 48 0 0 14c0 5 0 8 0 12 0 3 2 4 2 6 1 2 1 3 3 6 1 2 5 5 8 8l24 26c5 6 9 13 11 21 3 8 5 16 5 25 3 8 1 20-3 28z m-95-186c-6-6-9-13-9-22 0-8 3-16 9-23 7-6 13-9 21-9 8 0 16 3 21 9 6 7 9 13 9 23 0 9-3 16-9 22-11 13-31 13-42 0z"/>
<glyph glyph-name="ln-icon-import" unicode="&#57425;" d="M275 493c0 9-8 19-19 19-11 0-19-10-19-19l0-144 40 0 0 144z m144-144l-144 0 0-183 37 37c3 3 8 7 14 7 12 0 20-10 20-20 0-4-2-9-7-14l-70-70c-3-4-8-7-15-7-6 0-9 2-14 7l-67 70c-3 3-7 8-7 14 0 12 10 20 20 20 4 0 9-2 14-7l37-37 0 183-144 0c-13 0-24-11-24-24l0-303c1-11 11-22 24-22l326 0c13 0 24 11 24 24l0 302c-1 13-11 23-24 23z"/>
<glyph glyph-name="ln-icon-import-o" unicode="&#57426;" d="M419 349l-62 0c-7 0-11-5-11-11 0-7 4-12 11-12l62 0 0-302-326 0 0 302 62 0c7 0 11 5 11 12 0 6-4 11-11 11l-62 0c-13 0-24-11-24-24l0-303c1-11 11-22 24-22l326 0c13 0 24 11 24 24l0 302c-1 13-11 23-24 23z m-93-139c-4 0-9-2-14-7l-37-37 0 327c0 9-8 19-19 19-11 0-19-10-19-19l0-325-37 37c-3 3-8 6-14 6-12 0-20-9-20-19 0-5 2-10 7-14l70-71c3-3 8-6 15-6 6 0 9 1 14 6l70 71c4 3 7 8 7 14-3 8-13 18-23 18z"/>
<glyph glyph-name="ln-icon-info" unicode="&#57427;" d="M256 512c-141 0-256-115-256-256 0-141 115-256 256-256 141 0 256 115 256 256 0 141-115 256-256 256z m-26-126c15 14 39 14 53 0 7-8 11-16 11-28 0-11-3-19-11-27-8-8-16-11-25-11-10 0-20 3-26 11-6 8-11 16-11 27-2 10 1 20 9 28z m74-271l-93 0 0 13c3 0 5 0 8 2 3 0 5 1 7 1 3 2 4 3 6 7 2 3 2 6 2 9l0 83c0 4 0 8-2 10-2 3-3 5-6 6-2 2-5 4-8 4-4 1-7 1-10 1l0 13 72 5 2-3 0-119c0-3 0-6 1-9 2-4 3-5 7-7 1-1 4-1 6-3 2 0 5-2 8-2z"/>
<glyph glyph-name="ln-icon-info-o" unicode="&#57428;" d="M256 512c-141 0-256-115-256-256 0-141 115-256 256-256 141 0 256 115 256 256 0 141-115 256-256 256z m0-488c-128 0-232 104-232 232 0 128 104 232 232 232 128 0 232-104 232-232 0-128-104-232-232-232z m34 120c-4 2-5 3-7 6-1 4-1 7-1 10l0 118-2 4-72-5 0-13c3 0 6-2 10-2 3-1 6-3 8-3 1-1 4-5 6-6 2-3 2-7 2-10l0-83c0-5 0-8-2-10-2-3-3-4-6-6-2 0-4-2-7-2-3 0-5 0-8-1l0-13 93 0 0 13c-3 0-5 1-8 1-2 0-3 2-6 2z m-7 253c-14 14-38 14-53 0-6-8-11-16-11-27 0-12 3-20 11-28 8-8 16-11 26-11 10 0 19 3 26 11 6 8 11 16 11 28 0 11-3 20-10 27z"/>
<glyph glyph-name="ln-icon-key" unicode="&#57429;" d="M512 104c0 3-2 6-3 8l-191 190c5 15 7 31 7 47 1 89-72 163-162 163-89 0-163-74-163-163 0-90 74-163 163-163 16 0 32 1 47 6l96-96c1-3 4-5 9-5l35 0 0-35c0-6 5-11 12-11l35 0 0-34c0 0 0-1 0-1 0-7 5-12 11-12l93 0c6 0 11 5 11 12z m-384 234c-26 0-46 20-46 46 0 26 20 46 46 46 26 0 46-20 46-46 0-26-20-46-46-46z m139-24z m-139 92c-13 0-22-9-22-22 0-13 9-22 22-22 13 0 22 9 22 22 0 13-9 22-22 22z"/>
<glyph glyph-name="ln-icon-key-o" unicode="&#57430;" d="M128 430c-26 0-46-20-46-46 0-26 20-46 46-46 26 0 46 20 46 46 0 26-20 46-46 46z m0-70c-13 0-22 11-22 24 0 13 9 22 22 22 13 0 24-9 24-22 0-13-11-24-24-24z m384-256c0 3-2 6-3 8l-191 190c5 15 7 31 7 47 1 89-72 163-162 163-89 0-163-74-163-163 0-90 74-163 163-163 16 0 32 1 47 6l96-96c1-3 4-5 9-5l35 0 0-35c0-6 5-11 12-11l35 0 0-34c0 0 0-1 0-1 0-7 5-12 11-12l93 0c6 0 11 5 11 12z m-24-80l-70 0 0 34c0 0 0 0 0 1 0 7-5 11-12 11l-35 0 0 36c0 6-5 11-11 11l-42 0-60 61-37 36c-2 4-5 5-10 5-1 0-1 0-3 0-14-5-30-8-46-8-77 0-140 63-140 139 0 77 63 140 140 140 76 0 139-63 139-140 0-16-3-30-8-44 0-2-2-4-2-5 0-3 2-7 5-10l190-190 0-77z"/>
<glyph glyph-name="ln-icon-light-off" unicode="&#57431;" d="M373 256c0-65-52-117-117-117-65 0-117 52-117 117 0 65 52 117 117 117 65 0 117-52 117-117z"/>
<glyph glyph-name="ln-icon-light-off-o" unicode="&#57432;" d="M256 373c-64 0-117-53-117-117 0-64 53-117 117-117 64 0 117 53 117 117 0 64-53 117-117 117z m0-210c-51 0-93 42-93 93 0 51 42 93 93 93 51 0 93-42 93-93 0-51-42-93-93-93z"/>
<glyph glyph-name="ln-icon-light-on" unicode="&#57433;" d="M125 371c5-5 11-5 16 0 5 5 5 11 0 16l-50 50c-5 5-11 5-16 0-5-5-5-11 0-16z m131 48c6 0 11 5 11 11l0 71c0 6-5 11-11 11-6 0-11-5-11-11l0-71c0-6 5-11 11-11z m131-48l50 50c5 5 5 11 0 16-5 5-11 5-16 0l-50-50c-5-5-5-11 0-16 5-5 11-5 16 0z m-294-115c0 6-5 11-11 11l-71 0c-6 0-11-5-11-11 0-6 5-11 11-11l71 0c6 0 11 5 11 11z m294-115c-5 5-11 5-16 0-5-5-5-11 0-16l50-50c5-5 11-5 16 0 5 5 5 11 0 16z m114 126l-71 0c-6 0-11-5-11-11 0-6 5-11 11-11l71 0c6 0 11 5 11 11 0 6-5 11-11 11z m-245 106c-64 0-117-53-117-117 0-64 53-117 117-117 64 0 117 53 117 117 0 64-53 117-117 117z m0-280c-6 0-11-5-11-11l0-71c0-6 5-11 11-11 6 0 11 5 11 11l0 71c0 6-5 11-11 11z m-131 48l-50-50c-5-5-5-11 0-16 5-5 11-5 16 0l50 50c5 5 5 11 0 16-5 5-11 5-16 0z"/>
<glyph glyph-name="ln-icon-light-on-o" unicode="&#57434;" d="M125 371c5-5 11-5 16 0 5 5 5 11 0 16l-50 50c-5 5-11 5-16 0-5-5-5-11 0-16z m262 0l50 50c5 5 5 11 0 16-5 5-11 5-16 0l-50-50c-5-5-5-11 0-16 5-5 11-5 16 0z m-294-115c0 6-5 11-11 11l-71 0c-6 0-11-5-11-11 0-6 5-11 11-11l71 0c6 0 11 5 11 11z m163 163c6 0 11 5 11 11l0 71c0 6-5 11-11 11-6 0-11-5-11-11l0-71c0-6 5-11 11-11z m0-326c-6 0-11-5-11-11l0-71c0-6 5-11 11-11 6 0 11 5 11 11l0 71c0 6-5 11-11 11z m131 48c-5 5-11 5-16 0-5-5-5-11 0-16l50-50c5-5 11-5 16 0 5 5 5 11 0 16z m-131 232c-64 0-117-53-117-117 0-64 53-117 117-117 64 0 117 53 117 117 0 64-53 117-117 117z m0-210c-51 0-93 42-93 93 0 51 42 93 93 93 51 0 93-42 93-93 0-51-42-93-93-93z m245 104l-71 0c-6 0-11-5-11-11 0-6 5-11 11-11l71 0c6 0 11 5 11 11 0 6-5 11-11 11z m-376-126l-50-50c-5-5-5-11 0-16 5-5 11-5 16 0l50 50c5 5 5 11 0 16-5 5-11 5-16 0z"/>
<glyph glyph-name="ln-icon-lightning" unicode="&#57435;" d="M197 512l-80-280 139 0-35-232 174 326-104 0 45 186"/>
<glyph glyph-name="ln-icon-lightning-o" unicode="&#57436;" d="M395 326l-104 0 45 186-139 0-80-278 139 0-35-234z m-248-70l67 232 93 0-38-157-7-29 96 0-92-172 14 99 5 27z"/>
<glyph glyph-name="ln-icon-like" unicode="&#57437;" d="M461 301c-26 1-88 1-115 3-7 0-15 3-20 10-3 4-3 12 0 20 10 29 16 53 10 87-8 33-34 54-54 56-13 1-23-3-26-15-5-11-6-25-8-41-3-21-6-48-18-77-20-51-44-86-99-86l-13 0 0-186 13 0c0 0 2 0 3 0 5 0 18 0 40-2 15-1 37-8 56-11 42-8 117-19 160-24 36 8 48 27 76 64 16 26 48 80 48 120-2 26-10 71-53 82z m-461-229l88 0 0 186-88 0z"/>
<glyph glyph-name="ln-icon-like-o" unicode="&#57438;" d="M443 298c-25 1-70 1-97 3-7 0-15 3-20 9-3 5-3 13 0 21 10 29 16 53 10 87-8 33-34 54-54 56-13 1-23-4-26-15-5-11-6-25-8-41-3-21-6-48-18-77-20-51-44-87-99-87l-13 0 0-185 13 0c0 0 13 0 42 0 9 0 24 0 37 0 6 0 12 0 19 0 32-3 113-27 163-27 13 0 22 1 30 4 48 23 77 119 90 168 0 37-27 74-69 84z m-30-229c-2-2-8-3-21-3-29 0-70 9-104 16-24 4-45 9-58 11-6 0-12 0-20 0-8 0-15 0-21 0-5 0-11 0-16 0l-32 0 0 139c64 5 91 53 109 101 12 32 16 61 19 83 1 14 3 27 6 35 0 0 3 2 10-1 9-5 22-16 27-36 5-25 2-43-10-73-4-16-4-31 4-42 4-8 16-17 36-19 18-2 40-2 64-2 13 0 24 0 32-1 31-8 48-34 50-56-30-120-62-147-75-152z m-413 0l88 0 0 185-88 0z m24 163l40 0 0-138-40 0z"/>
<glyph glyph-name="ln-icon-line-down" unicode="&#57439;" d="M466 162c-5 0-10-2-15-2l-91 144c8 8 13 19 13 32 0 26-21 46-47 46-25 0-46-20-46-46 0-3 0-5 2-8l-56-26c-8 12-21 18-37 18-10 0-18-3-26-8l-75 64c3 6 6 14 6 22 0 26-20 47-46 47-26 0-48-21-48-47 0-25 21-46 46-46 10 0 18 3 26 8l72-66c-3-6-6-14-6-22 0-26 20-46 46-46 26 0 46 20 46 46 0 3 0 5-1 8l56 26c8-10 21-18 37-18 4 0 9 2 14 2l91-144c-8-8-13-20-13-32 0-26 21-47 47-47 25 0 46 21 46 47 0 25-16 48-41 48z"/>
<glyph glyph-name="ln-icon-line-down-o" unicode="&#57440;" d="M466 162c-5 0-10-2-15-2l-91 144c8 8 13 19 13 32 0 26-21 46-47 46-25 0-46-20-46-46 0-3 0-5 2-8l-56-26c-8 12-21 18-37 18-10 0-18-3-26-8l-75 64c3 6 6 14 6 22 0 26-20 47-46 47-26 0-48-21-48-47 0-25 21-46 46-46 10 0 18 3 26 8l72-66c-3-6-6-14-6-22 0-26 20-46 46-46 26 0 46 20 46 46 0 3 0 5-1 8l56 26c8-10 21-18 37-18 4 0 9 2 14 2l91-144c-8-8-13-20-13-32 0-26 21-47 47-47 25 0 46 21 46 47 0 25-16 48-41 48z m-442 236c0 13 10 23 22 23 13 0 23-10 23-23 0-12-10-24-23-24-12 0-22 12-22 24z m162-150c-13 0-23 10-23 22 0 13 10 23 23 23 12 0 22-10 22-23 0-12-10-22-22-22z m116 86c0 13 10 23 23 23 13 0 22-10 22-23 0-12-9-22-22-22-13 0-23 10-23 22z m164-243c-13 0-23 10-23 23 0 12 10 22 23 22 12 0 22-10 22-22 0-13-10-23-22-23z"/>
<glyph glyph-name="ln-icon-line-straight" unicode="&#57441;" d="M466 302c-23 0-40-14-45-35l-48 0c-5 21-24 35-45 35-21 0-40-14-45-35l-48 0c-5 21-24 35-45 35-20 0-44-14-49-33l-48 0c-5 21-24 35-45 35-27-2-48-22-48-48 0-26 21-46 46-46 23 0 40 14 45 35l48 0c5-21 24-35 45-35 21 0 40 14 45 35l48 0c5-21 24-35 45-35 20 0 40 14 44 35l48 0c5-21 24-35 45-35 26 0 47 20 47 46 0 26-15 46-40 46z"/>
<glyph glyph-name="ln-icon-line-straight-o" unicode="&#57442;" d="M466 302c-23 0-40-14-45-35l-48 0c-5 21-24 35-45 35-21 0-40-14-45-35l-48 0c-5 21-24 35-45 35-20 0-44-14-49-33l-48 0c-5 21-24 35-45 35-27-2-48-22-48-48 0-26 21-46 46-46 23 0 40 14 45 35l48 0c5-21 24-35 45-35 21 0 40 14 45 35l48 0c5-21 24-35 45-35 20 0 40 14 44 35l48 0c5-21 24-35 45-35 26 0 47 20 47 46 0 26-15 46-40 46z m-420-68c-12 0-22 9-22 22 0 13 10 22 22 22 13 0 23-9 23-22 0-13-10-22-23-22z m140 0c-13 0-23 9-23 22 0 13 10 22 23 22 12 0 22-9 22-22 0-13-10-22-22-22z m140 0c-12 0-22 9-22 22 0 13 10 22 22 22 13 0 23-9 23-22 0-13-11-22-23-22z m140 0c-13 0-23 9-23 22 0 13 10 22 23 22 12 0 22-9 22-22 0-13-10-22-22-22z"/>
<glyph glyph-name="ln-icon-line-up" unicode="&#57443;" d="M466 350c-5 0-10 2-15 2l-91-144c8-8 13-19 13-32 0-26-21-46-47-46-25 0-46 20-46 46 0 3 0 5 2 8l-56 26c-8-12-21-18-37-18-10 0-18 3-26 8l-72-66c3-6 7-14 7-22 0-26-21-46-47-46-25 0-51 22-51 48 0 25 21 46 46 46 10 0 18-3 26-8l72 66c-3 6-6 14-6 22 0 26 20 46 46 46 26 0 46-20 46-46 0-3 0-5-1-8l56-26c8 10 21 18 37 18 4 0 9-2 14-2l91 144c-8 8-13 20-13 32 0 26 21 47 47 47 25 0 51-21 51-47 0-25-21-48-46-48z"/>
<glyph glyph-name="ln-icon-line-up-o" unicode="&#57444;" d="M466 350c-5 0-10 2-15 2l-91-144c8-8 13-19 13-32 0-26-21-46-47-46-25 0-46 20-46 46 0 3 0 5 2 8l-56 26c-8-12-21-18-37-18-10 0-18 3-26 8l-72-66c3-6 7-14 7-22 0-26-21-46-47-46-25 0-51 22-51 48 0 25 21 46 46 46 10 0 18-3 26-8l72 66c-3 6-6 14-6 22 0 26 20 46 46 46 26 0 46-20 46-46 0-3 0-5-1-8l56-26c8 10 21 18 37 18 4 0 9-2 14-2l91 144c-8 8-13 20-13 32 0 26 21 47 47 47 25 0 51-21 51-47 0-25-21-48-46-48z m-442-236c0-13 10-23 22-23 13 0 23 10 23 23 0 12-10 22-23 22-12 0-22-10-22-22z m162 150c-13 0-23-10-23-22 0-13 10-23 23-23 12 0 22 10 22 23 0 12-10 22-22 22z m116-86c0-13 10-23 23-23 13 0 22 10 22 23 0 12-9 22-22 22-13 0-23-10-23-22z m164 243c-13 0-23-10-23-23 0-12 10-22 23-22 12 0 22 10 22 22 0 13-10 23-22 23z"/>
<glyph glyph-name="ln-icon-list" unicode="&#57445;" d="M21 414l470 0c11 0 21 10 21 21 0 11-10 21-21 21l-470 0c-11 0-21-10-21-21 0-11 10-21 21-21z m470-316l-470 0c-11 0-21-10-21-21 0-11 10-21 21-21l470 0c11 0 21 10 21 21 0 11-10 21-21 21z m0 115l-470 0c-11 0-21-10-21-21 0-11 10-21 21-21l470 0c11 0 21 10 21 21 0 11-10 21-21 21z m0 115l-470 0c-11 0-21-10-21-21 0-11 10-21 21-21l470 0c11 0 21 10 21 21 0 11-10 21-21 21z"/>
<glyph glyph-name="ln-icon-list-alt" unicode="&#57446;" d="M46 373l420 0c25 0 46 21 46 46 0 26-21 47-46 47l-420 0c-25 0-46-21-46-47 0-25 21-46 46-46z m420-234l-420 0c-25 0-46-21-46-46 0-26 21-47 46-47l420 0c25 0 46 21 46 47 0 25-21 46-46 46z m0 163l-420 0c-25 0-46-20-46-46 0-26 21-46 46-46l420 0c25 0 46 20 46 46 0 26-21 46-46 46z"/>
<glyph glyph-name="ln-icon-list-alt-o" unicode="&#57447;" d="M46 373l420 0c25 0 46 21 46 46 0 26-21 47-46 47l-420 0c-25 0-46-21-46-47 0-25 21-46 46-46z m0 69l420 0c12 0 24-12 24-24 0-13-12-24-24-24l-420 0c-12 0-24 11-24 24 0 12 12 24 24 24z m420-303l-420 0c-25 0-46-21-46-46 0-26 21-47 46-47l420 0c25 0 46 21 46 47 0 25-21 46-46 46z m0-69l-420 0c-12 0-24 12-24 24 0 13 12 24 24 24l420 0c12 0 24-11 24-24-2-14-12-24-24-24z m0 232l-420 0c-25 0-46-20-46-46 0-26 21-46 46-46l420 0c25 0 46 20 46 46 0 26-21 46-46 46z m0-70l-420 0c-12 0-24 11-24 24 0 13 12 24 24 24l420 0c12 0 24-11 24-24 0-13-12-24-24-24z"/>
<glyph glyph-name="ln-icon-list-bullet" unicode="&#57448;" d="M26 102c-15 0-26-11-26-25 0-15 11-26 26-26 14 0 25 11 25 26 0 14-11 25-25 25z m0 231c-15 0-26-11-26-26 0-14 11-25 26-25 14 0 25 11 25 25 0 15-11 26-25 26z m0 77c14 0 25 11 25 25 0 15-11 26-25 26-15 0-26-11-26-26 0-14 11-25 26-25z m0-192c-15 0-26-12-26-26 0-14 11-26 26-26 14 0 25 12 25 26 0 14-11 26-25 26z m465-5l-384 0c-11 0-21-10-21-21 0-11 10-21 21-21l384 0c11 0 21 10 21 21 0 11-10 21-21 21z m0 115l-384 0c-11 0-21-10-21-21 0-11 10-21 21-21l384 0c11 0 21 10 21 21 0 11-10 21-21 21z m-384 86l384 0c11 0 21 10 21 21 0 11-10 21-21 21l-384 0c-11 0-21-10-21-21 0-11 10-21 21-21z m384-316l-384 0c-11 0-21-10-21-21 0-11 10-21 21-21l384 0c11 0 21 10 21 21 0 11-10 21-21 21z"/>
<glyph glyph-name="ln-icon-list-bullet-alt" unicode="&#57449;" d="M46 302c-25 0-46-20-46-46 0-26 21-46 46-46 26 0 47 20 47 46 0 26-21 46-47 46z m0-163c-25 0-46-21-46-46 0-26 21-47 46-47 26 0 47 21 47 47 0 25-21 46-47 46z m140 234l280 0c25 0 46 21 46 46 0 26-21 47-46 47l-280 0c-26 0-47-21-47-47 0-25 21-46 47-46z m-140 93c-25 0-46-21-46-47 0-25 21-46 46-46 26 0 47 21 47 46 0 26-21 47-47 47z m420-164l-280 0c-26 0-47-20-47-46 0-26 21-46 47-46l280 0c25 0 46 20 46 46 0 26-21 46-46 46z m0-163l-280 0c-26 0-47-21-47-46 0-26 21-47 47-47l280 0c25 0 46 21 46 47 0 25-21 46-46 46z"/>
<glyph glyph-name="ln-icon-list-bullet-alt-o" unicode="&#57450;" d="M186 373l280 0c25 0 46 21 46 46 0 26-21 47-46 47l-280 0c-26 0-47-21-47-47 0-25 21-46 47-46z m0 69l280 0c12 0 24-12 24-24 0-13-12-24-24-24l-280 0c-13 0-24 11-24 24 0 12 11 24 24 24z m-140-303c-25 0-46-21-46-46 0-26 21-47 46-47 26 0 47 21 47 47 0 25-21 46-47 46z m0-69c-12 0-24 12-24 24 0 13 12 24 24 24 13 0 24-11 24-24 0-14-11-24-24-24z m0 232c-25 0-46-20-46-46 0-26 21-46 46-46 26 0 47 20 47 46 0 26-21 46-47 46z m0-70c-12 0-24 11-24 24 0 13 12 24 24 24 13 0 24-11 24-24 0-13-11-24-24-24z m420 70l-280 0c-26 0-47-20-47-46 0-26 21-46 47-46l280 0c25 0 46 20 46 46 0 26-21 46-46 46z m0-70l-280 0c-13 0-24 11-24 24 0 13 11 24 24 24l280 0c12 0 24-11 24-24 0-13-12-24-24-24z m0-93l-280 0c-26 0-47-21-47-46 0-26 21-47 47-47l280 0c25 0 46 21 46 47 0 25-21 46-46 46z m0-69l-280 0c-13 0-24 12-24 24 0 13 11 24 24 24l280 0c12 0 24-11 24-24-2-14-12-24-24-24z m-420 396c-25 0-46-21-46-47 0-25 21-46 46-46 26 0 47 21 47 46 0 26-21 47-47 47z m0-71c-12 0-24 11-24 24 0 13 12 24 24 24 13 0 24-11 24-24 0-13-11-24-24-24z"/>
<glyph glyph-name="ln-icon-lock-closed" unicode="&#57451;" d="M406 326l-22 0 0 58c0 70-58 128-128 128-70 0-128-58-128-128l0-58-22 0c-26 0-47-20-47-46l0-232c0-27 21-48 47-48l302 0c26 0 46 21 46 46l0 234c-1 26-22 46-48 46z m-139-172l0-37c0-7-5-11-11-11-6 0-11 4-11 11l0 37c-13 4-24 17-24 32 0 19 16 35 35 35 19 0 35-16 35-35 0-15-9-28-24-32z m93 172l-208 0 0 58c0 58 46 104 104 104 58 0 104-46 104-104z"/>
<glyph glyph-name="ln-icon-lock-closed-o" unicode="&#57452;" d="M408 326l-24 0 0 58c0 70-58 128-128 128-70 0-128-58-128-128l0-58-24 0c-26 0-46-20-46-46l0-232c0-26 20-46 46-46l302 0c26 0 47 20 47 46l0 232c1 26-19 46-45 46z m-256 58c0 58 46 104 104 104 58 0 104-46 104-104l0-58-208 0z m278-338c0-12-11-24-24-24l-302 0c-13 0-24 12-24 24l0 234c0 13 11 24 24 24l302 0c13 0 24-11 24-24z m-174 175c-19 0-35-16-35-35 0-15 9-28 24-32l0-37c0-7 5-11 11-11 6 0 11 4 11 11l0 37c13 4 24 17 24 32 0 19-16 35-35 35z"/>
<glyph glyph-name="ln-icon-lock-open" unicode="&#57453;" d="M408 326l-24 0 0 58c0 70-56 128-126 128-34 0-66-13-92-37-4-5-4-13 0-17 5-5 12-4 16 1 20 19 47 31 74 31 58 0 104-48 104-104l0-58-256 0c-26 0-46-21-46-46l0-232c0-26 20-47 46-47l302 0c26 0 47 21 47 47l0 230c1 26-19 46-45 46z m-141-172l0-37c0-7-5-11-11-11-6 0-11 4-11 11l0 37c-13 4-24 17-24 32 0 19 16 35 35 35 19 0 35-16 35-35 0-15-9-28-24-32z"/>
<glyph glyph-name="ln-icon-lock-open-o" unicode="&#57454;" d="M256 221c-19 0-35-16-35-35 0-15 9-28 24-32l0-37c0-7 5-11 11-11 6 0 11 4 11 11l0 37c13 4 24 17 24 32 0 19-16 35-35 35z m152 105l-24 0 0 58c0 70-56 128-126 128-34 0-66-13-92-37-4-5-4-13 0-17 5-5 12-4 16 1 20 19 47 31 74 31 58 0 104-48 104-104l0-58-256 0c-26 0-46-21-46-46l0-232c0-26 20-47 46-47l302 0c26 0 47 21 47 47l0 230c1 26-19 46-45 46z m22-280c0-12-11-24-24-24l-302 0c-13 0-24 12-24 24l0 234c0 13 11 24 24 24l302 0c13 0 24-11 24-24z"/>
<glyph glyph-name="ln-icon-logo" unicode="&#57455;" d="M96 278c0 16 8 29 19 29 10 0 18-13 18-29 0-16-8-29-18-29-10 0-19 13-19 29m284 0c0 16 8 29 18 29 11 0 19-13 19-29 0-16-8-29-19-29-10 0-18 13-18 29m-143 6c0 17 9 31 20 31 11 0 20-14 20-31 0-18-9-32-20-32-11 1-20 15-20 32m20-49c-23 0-46 65-71 65-26 0-48-64-71-64-24 0-42 65-73 65-22-1-42-28-42-28l0-20c0 0 17 32 43 32 26 0 48-88 72-88 25 0 48 83 71 84 23 1 44-84 71-84 26 0 47 85 71 84 23-1 46-84 70-84 25 0 46 88 72 88 26 0 43-32 43-32l0 20c0 0-20 27-42 27-30 0-49-65-72-65-24 0-46 65-71 65-26 0-49-65-71-65"/>
<glyph glyph-name="ln-icon-mail" unicode="&#57456;" d="M272 205l214 237-460 0 212-237c10-10 26-10 34 0z m-269 227c-1-3-3-8-3-13l0-326c0-5 2-10 3-13l162 173z m285-243c-18-18-46-18-66 0l-43 48-153-167 460 0-155 167z m219 243l-160-179 162-173c3 3 3 8 3 13l0 326c0 5-2 10-5 13z"/>
<glyph glyph-name="ln-icon-mail-o" unicode="&#57457;" d="M488 442l-464 0c-13 0-24-10-24-23l0-326c0-13 11-24 24-24l466 0c12 0 24 11 24 24l0 326c-2 13-13 23-26 23z m-24-23l-192-214c-10-10-24-10-34 0l-192 214z m-440-9l142-157-142-152z m24-317l133 142 43-48c18-17 46-17 66 0l43 48 133-142z m440 8l-142 152 142 158z"/>
<glyph glyph-name="ln-icon-more-o" unicode="&#57459;" d="M70 326c-38 0-70-32-70-70 0-38 32-70 70-70 39 0 71 32 71 70 0 38-32 70-71 70z m0-116c-25 0-46 20-46 46 0 26 21 46 46 46 26 0 47-20 47-46 0-26-21-46-47-46z m186 116c-38 0-70-32-70-70 0-38 32-70 70-70 38 0 70 32 70 70 0 38-32 70-70 70z m0-116c-26 0-46 20-46 46 0 26 20 46 46 46 26 0 46-20 46-46 0-26-20-46-46-46z m186 116c-39 0-71-32-71-70 0-38 32-70 71-70 38 0 70 32 70 70 0 38-32 70-70 70z m1-116c-25 0-46 20-46 46 0 26 21 46 46 46 26 0 47-20 47-46 0-26-21-46-47-46z"/>
<glyph glyph-name="ln-icon-move" unicode="&#57460;" d="M509 264l-71 70c-1 2-4 4-8 4-6 0-11-5-11-12 0-3 2-6 3-8l50-49-205 0 0 205 50-50c1-2 5-3 8-3 6 0 11 5 11 11 0 3-2 6-3 8l-71 70c0 0-3 2-6 2-3 0-6-2-8-3l-70-71c-2-1-4-4-4-8 0-6 5-11 12-11 3 0 6 2 8 3l49 50 0-205-205 0 50 50c2 1 3 5 3 8 0 6-5 11-11 11-3 0-6-2-8-3l-70-71c0 0-2-3-2-6 0-3 2-6 3-8l71-70c1-2 4-4 8-4 6 0 11 5 11 12 0 3-2 6-3 8l-50 49 205 0 0-205-50 50c-1 2-5 3-8 3-6 0-11-5-11-11 0-3 2-6 3-8l71-70c1-2 4-4 8-4 3 0 6 2 8 4l70 70c2 2 3 5 3 8 0 6-5 11-11 11-3 0-6-1-8-3l-50-50 0 205 205 0-49-49c-2-2-4-5-4-8 0-7 5-12 12-12 3 0 6 2 8 4l70 70c2 2 3 5 3 8-3 3-5 6-6 8z"/>
<glyph glyph-name="ln-icon-move-alt" unicode="&#57461;" d="M82 338c-4 0-7-2-8-4l-71-70c-1-2-3-5-3-8 0-3 2-6 3-8l71-70c1-2 4-4 8-4 6 0 11 5 11 12l0 139c0 8-5 13-11 13z m182 171c-2 1-5 3-8 3-3 0-6-2-8-3l-70-71c-2-1-4-4-4-8 0-6 5-11 12-11l139 0c6 0 11 5 11 11 0 4-2 7-3 8z m62-416l-139 0c-6 0-11-5-11-11 0-4 2-7 3-8l71-71c1-1 4-3 8-3 3 0 6 2 8 3l70 71c2 1 3 4 3 8-1 6-6 11-13 11z m183 171l-71 70c-1 2-4 4-8 4-6 0-11-5-11-12l0-139c0-6 5-11 11-11 4 0 7 2 8 3l71 71c1 1 3 4 3 8 0 1-2 4-3 6z"/>
<glyph glyph-name="ln-icon-move-alt-o" unicode="&#57462;" d="M82 338c-4 0-7-2-10-4l-70-70c0-2-2-5-2-8 0-3 2-6 3-8l71-70c1-2 4-4 8-4 6 0 12 5 12 13l0 139c0 5-6 12-12 12z m-12-124l-41 42 41 42z m194 295c-2 1-5 3-8 3-3 0-6-2-8-3l-70-71c-2-1-4-4-4-8 0-6 5-12 13-12l139 0c7 0 13 4 13 12 0 4-1 7-3 8z m-50-67l42 41 42-41z m124-360c0 6-5 12-13 12l-139 0c-7 0-13-4-13-12 0-4 1-7 3-8l70-71c2-1 5-3 8-3 4 0 7 2 8 3l71 71c3 1 5 4 5 8z m-82-53l-42 41 84 0z m253 235l-71 70c-1 2-4 4-8 4-6 0-12-5-12-13l0-139c0-7 4-13 12-13 4 0 7 1 8 3l71 70c1 2 3 5 3 8 0 5-2 8-3 10z m-67-50l0 84 41-42z"/>
<glyph glyph-name="ln-icon-pencil" unicode="&#57463;" d="M50 182c-2-1-2-3-4-4l-46-164c0-1 0-1 0-3 0-6 5-11 11-11 2 0 2 0 3 0l164 46c1 0 3 2 4 4l248 248-132 132z m113-115l-134-38 38 134 39 0 0-46c0-7 4-11 11-11l46 0z m346 325l-117 117c-2 1-5 3-8 3-3 0-6-2-8-3l-61-61 133-133 61 61c1 2 3 5 3 8 0 3-2 6-3 8z"/>
<glyph glyph-name="ln-icon-pencil-o" unicode="&#57464;" d="M509 392l-117 117c-2 1-5 3-8 3-3 0-6-2-8-3l-326-327c-2-1-2-3-4-4l-46-164c0-1 0-1 0-3 0-6 5-11 11-11 2 0 2 0 3 0l164 46c1 0 3 2 4 4l327 326c1 2 3 5 3 8 0 3-2 6-3 8z m-346-325l-134-38 38 134 39 0 0-46c0-7 4-11 11-11l46 0z m23 19l0 31c0 6-5 11-12 11l-46 0 0 46c0 7-5 12-11 12l-31 0 228 228 99-99z m244 245l-99 99 53 53 99-99z"/>
<glyph glyph-name="ln-icon-phone" unicode="&#57465;" d="M512 93c-5 27-29 56-72 85-30 20-50 27-66 27-16 0-25-8-36-19-2-2-4-4-7-5-3-3-11-11-19-11-3 0-5 1-8 3-18 17-64 62-67 64 0 0-43 46-61 65-3 4-3 5-3 7 0 6 8 13 11 16l2 0c1 1 4 5 6 6 24 21 37 39-5 103-35 52-57 73-80 78-1 0-5 0-8 0-11 0-22-5-37-14-28-21-57-44-62-82-6-56 40-134 152-259l2-2c107-107 185-157 248-157 1 0 4 0 6 0 45 4 74 32 93 56 9 13 13 26 11 39z"/>
<glyph glyph-name="ln-icon-phone-o" unicode="&#57466;" d="M512 93c-5 27-29 56-72 85-30 20-50 27-66 27-16 0-25-8-36-19-2-2-4-4-7-5-3-3-11-11-19-11-3 0-5 1-8 3-18 17-64 62-67 64 0 0-43 46-61 65-3 4-3 5-3 7 0 6 8 13 11 16l2 0c1 1 4 5 6 6 24 21 37 37-5 103-35 52-57 73-80 78-1 0-5 0-8 0-11 0-22-5-37-14-28-21-57-44-62-82-6-56 40-134 152-259l2-2c107-107 185-157 248-157 1 0 4 0 6 0 45 4 74 32 93 56 9 13 13 26 11 39z m-29-23c-17-22-41-44-77-48-1 0-3 0-4 0-56 0-132 50-232 151-106 117-151 192-146 240 3 25 21 43 53 64 9 6 17 9 24 9 1 0 1 0 3 0 14-3 34-22 62-68 34-50 26-56 10-69-2-2-5-3-6-7-5-3-20-14-21-32 0-9 3-17 9-25 12-11 31-32 45-47l18-19c0 0 48-46 67-64 8-8 18-9 24-9 18 0 32 14 35 17 2 2 3 3 5 5 11 10 16 13 22 13 12 0 29-8 53-24 37-24 59-48 63-69 0-5-2-11-7-18z"/>
<glyph glyph-name="ln-icon-plus" unicode="&#57467;" d="M493 275l-218 0 0 218c0 9-8 19-19 19-11 0-19-10-19-19l0-216-218 0c-9-2-19-10-19-21 0-11 10-19 19-19l216 0 0-216c0-11 10-19 19-19 10 0 20 9 20 19l0 216 216 0c11 0 19 8 19 19 0 11-7 19-16 19z"/>
<glyph glyph-name="ln-icon-power" unicode="&#57468;" d="M256 512c-141 0-256-115-256-256 0-141 115-256 256-256 141 0 256 115 256 256 0 141-115 256-256 256z m-13-94c0 6 5 12 13 12 8 0 13-4 13-12l0-151c0-6-5-13-13-13-8 0-13 5-13 13z m127-277c-31-31-71-48-114-48-43 0-83 17-114 48-30 30-48 70-48 113 0 44 18 84 48 114 5 5 13 5 18 0 5-5 5-13 0-18-26-25-40-60-40-97 0-37 14-72 40-98 26-25 61-40 98-40 36 0 72 15 97 40 26 26 40 61 40 98 0 37-14 72-40 97-5 5-5 13 0 18 5 5 13 5 18 0 30-30 48-70 48-114-3-43-19-83-51-113z"/>
<glyph glyph-name="ln-icon-power-o" unicode="&#57469;" d="M256 3c-66 0-126 26-171 71-45 44-71 107-71 171 0 65 26 126 71 171 5 5 13 5 17 0 5-5 5-13 0-18-41-41-64-96-64-155 0-59 23-113 64-155 42-42 96-64 156-64 59 0 113 22 155 64 41 42 64 96 64 155 0 59-23 114-64 155-5 5-5 13 0 18 5 5 13 5 17 0 47-46 71-107 71-171 0-66-26-127-71-171-44-45-108-71-174-71z m0 247c-6 0-13 4-13 12l0 236c0 6 5 12 13 12 8 0 13-4 13-12l0-236c0-6-7-12-13-12z"/>
<glyph glyph-name="ln-icon-print" unicode="&#57470;" d="M419 488c0 13-11 24-24 24l-278 0c-13 0-24-11-24-24l0-93 326 0z m-24-256l-278 0c-13 0-24-11-24-24l0-186c0-12 11-24 24-24l280 0c13 0 24 12 24 24l0 188c-2 12-13 22-26 22z m-104-162l-117 0c-6 0-11 5-11 12 0 6 5 11 11 11l117 0c7 0 11-5 11-11 0-7-4-12-11-12z m47 69l-164 0c-6 0-11 5-11 11 0 7 5 12 11 12l164 0c6 0 11-5 11-12 0-4-5-11-11-11z m128 234l-420 0c-25 0-46-21-46-47l0-209c0-26 21-47 46-47l24 0 0 140c0 25 21 46 47 46l280 0c25 0 46-21 46-46l0-140 24 0c26 0 47 21 47 47l0 209c-2 26-23 47-48 47z m-47-93c-13 0-24 11-24 24 0 13 11 24 24 24 13 0 24-11 24-24-1-14-11-24-24-24z"/>
<glyph glyph-name="ln-icon-print-o" unicode="&#57471;" d="M174 139l164 0c6 0 11 5 11 11 0 7-5 12-11 12l-164 0c-6 0-11-5-11-12 0-4 5-11 11-11z m292 234l-47 0 0 115c0 13-11 24-24 24l-278 0c-13 0-24-11-24-24l0-117-47 0c-25 2-46-19-46-45l0-209c0-26 21-47 46-47l47 0 0-46c0-13 11-24 24-24l280 0c13 0 24 11 24 24l0 46 46 0c26 0 47 21 47 47l0 209c-2 26-23 47-48 47z m-349 115l280 0 0-117-280 0z m278-464l-278 0 0 186 280 0 0-186z m93 93c0-13-11-24-24-24l-46 0 0 117c0 12-12 24-24 24l-277 0c-13 0-24-12-24-24l0-117-47 0c-12 0-24 11-24 24l0 209c0 13 12 24 24 24l420 0c12 0 24-11 24-24l0-209z m-69 209c-13 0-24-11-24-24 0-12 11-24 24-24 13 0 24 12 24 24-1 13-11 24-24 24z m-245-256l117 0c7 0 11 5 11 12 0 6-4 11-11 11l-117 0c-6 0-11-5-11-11 0-7 5-12 11-12z"/>
<glyph glyph-name="ln-icon-redo" unicode="&#57472;" d="M512 258l0-2c0 6-5 11-11 11-7 0-11-5-11-11 0-128-104-232-232-232-128 0-234 104-234 232 0 128 104 232 232 232 86 0 162-46 202-117l-98 0c-6 0-11-5-11-11 0-6 5-11 11-11l117 0c6 0 11 5 11 11l0 117c0 6-5 11-11 11-7 0-11-5-11-11l0-75c-47 67-124 110-210 110-141 0-256-115-256-256 0-38 8-75 24-107 0-2 2-3 2-3 41-85 128-144 230-144 141 0 256 115 256 256z"/>
<glyph glyph-name="ln-icon-refresh" unicode="&#57473;" d="M24 256c0 128 104 232 232 232 86 0 162-46 202-117l-96 0c-7 0-12-5-12-11 0-6 5-11 12-11l116 0c7 0 12 5 12 11l0 117c0 6-5 11-12 11-6 0-11-5-11-11l0-75c-48 67-125 110-211 110-141 0-256-115-256-256 0-6 5-11 11-11 7 0 13 5 13 11z m488 2l0-2c0 6-5 11-11 11-7 0-11-5-11-11 0-128-104-232-232-232-87 0-162 46-202 117l96 0c6 0 11 5 11 11 0 6-5 11-11 11l-117 0c-6 0-11-5-11-11l0-117c0-6 5-11 11-11 7 0 11 5 11 11l0 75c47-67 124-110 210-110 141 0 256 115 256 256 0 2 0 2 0 2z"/>
<glyph glyph-name="ln-icon-resize-grow" unicode="&#57474;" d="M221 232c-3 0-7-2-8-3l-189-189 0 158c0 7-5 12-11 12-7 0-11-5-11-12l0-185c-2-8 3-13 9-13l186 0c6 0 11 5 11 11 0 7-5 11-11 11l-157 0 189 189c1 2 3 5 3 8 0 8-5 13-11 13z m280 280l-187 0c-7 0-12-5-12-11 0-7 5-11 12-11l158 0-189-191c-1-1-3-5-3-8 0-6 5-11 11-11 3 0 7 2 8 3l189 189 0-158c0-7 5-12 11-12 7 0 11 5 11 12l0 187c2 6-3 11-9 11z"/>
<glyph glyph-name="ln-icon-resize-shrink" unicode="&#57475;" d="M221 232l-186 0c-6 0-11-5-11-11 0-7 5-11 11-11l159 0-191-191c-1-1-3-5-3-8 0-6 5-11 11-11 3 0 7 2 8 3l189 189 0-158c0-7 5-12 11-12 7 0 11 5 11 12l0 187c2 6-3 11-9 11z m291 269c0 6-5 11-11 11-3 0-7-2-8-3l-191-191 0 159c0 6-4 11-11 11-6 0-11-5-11-11l0-186c0-6 5-11 11-11l186 0c6 0 11 5 11 11 0 7-5 11-11 11l-159 0 191 191c1 1 3 5 3 8z"/>
<glyph glyph-name="ln-icon-salesforce" unicode="&#57476;" d="M130 435l8 0c14 0 28-5 41-11 11-6 21-13 29-22 2-2 3-4 5-5 1 0 1 1 3 3 8 8 16 13 26 18 12 6 27 8 41 8 13-2 26-5 37-12 14-8 26-19 34-32 1-1 1-3 3-3 6 3 14 5 21 7 17 3 35 3 51-2 21-5 41-18 56-35 14-18 24-39 27-61 0-3 0-5 0-8l0-10c0-12-3-25-8-38-8-21-22-38-40-50-10-6-21-11-32-14-13-3-27-5-42-3-3 0-6 1-9 1-2-1-3-4-3-6-7-10-16-18-26-24-11-6-24-10-37-11-13 0-25 1-37 8 0 0-1 0-1 0-2-3-2-5-3-8-12-19-29-35-48-42-10-3-20-5-29-6l-7 0c-6 0-12 1-19 3-19 5-37 16-48 32-5 6-9 14-13 22 0 2-1 4-1 4-2 0-3 0-5 0-13-2-27 0-40 3-19 6-37 21-46 38-5 10-8 19-10 29 0 3 0 6-2 8l0 10c0 9 4 19 7 28 6 18 19 32 35 42 0 0 0 2 0 2-14 19-16 40-11 60 5 18 14 36 27 48 11 10 22 18 37 23 9 5 19 6 29 6z m185-75c-5-2-11-3-16-6-5-4-8-8-9-13-4-7-5-15-7-21 0-2 0-2-1-3-4 0-7 0-10 0-2 0-3 0-5 0-1 0-1-3-1-5 0-3-2-5-2-8 0-2 0-3 0-5 0-1 2-1 3-1 3 0 8 0 11 0 0 0 2 0 2 0 0 0 0-2 0-2-2-11-5-22-6-35 0-3-2-5-2-8-2-7-2-11-3-18 0-3-2-8-2-11-1-10-3-21-8-30-1-4-3-7-6-8-5-2-11-2-18 0-1 0-1 0-3-2-2-3-3-8-5-11 0-2 0-2 0-3 0-2 2-2 2-2 3-2 6-2 9-2 2 0 4 0 5 0 2 0 2 0 3 0 5 0 8 2 13 4 5 1 10 6 13 9 5 7 6 13 10 19 3 12 4 23 6 32 2 10 3 18 5 28 1 12 5 24 6 36 0 2 2 2 2 2 6 0 13 0 19 0 2 0 2 0 3 2 0 4 2 9 3 12 0 2 0 2-1 2-7 0-13 0-19 0 0 0-2 0-2 0 2 5 2 10 3 14 2 4 5 7 8 8 3 2 8 2 13 2 2 0 5-2 6-2 0 0 2 2 2 2 2 3 3 8 5 11 0 0 0 2 0 2 0 0-2 1-2 1-3 2-8 2-13 2-3 8-8 8-11 8z m-110-42c-2 0-5 0-7-1-6-2-11-5-16-10-4-5-6-11-8-17 0-2 0-5 0-7 0-6 4-11 8-16 5-5 12-6 18-9 6-2 13-4 19-7 3-1 7-3 8-8 0-3 0-5-1-8-2-5-7-6-12-6-4-2-9 0-14 0-3 0-6 1-10 3-4 2-9 5-12 6 0 0-2 0-2 0 0 0-2-1-2-1-1-3-3-8-4-11 0 0 0-2 0-2 0-2 1-2 1-2 2-1 3-1 5-3 10-5 19-8 30-8 2 0 2 0 4 0 1 0 3 0 6 0 5 0 8 2 13 3 6 4 11 7 14 13 2 3 3 7 3 10 0 3 0 6 0 9 0 7-4 13-9 16-7 5-15 8-23 10-4 2-11 3-16 6-1 2-4 4-6 5-2 2 0 3 0 5 0 3 3 6 8 8 5 2 11 2 16 0 6-2 13-3 19-6 0 0 2 0 2 0 0 0 1 1 1 1 2 3 4 7 4 11 0 0 0 2 0 4 0 0-2 1-2 1-6 3-14 7-21 8-1 0-3 0-5 0-1 0-4 0-6 0 0 5-2 5-3 3z"/>
<glyph glyph-name="ln-icon-salesforce-o" unicode="&#57477;" d="M512 282c0 1 0 3 0 4-2 24-13 47-29 66-16 18-37 30-59 37-18 5-37 5-54 1-5-1-8-1-13-3-8 13-21 23-34 31-13 6-25 11-40 11-16 1-32-2-46-8-8-3-15-8-23-13-8 8-16 14-27 19-11 7-27 11-43 11l-8 0c-11 0-21-3-30-6-16-5-29-13-40-24-15-14-26-32-31-53-3-19-3-38 3-56-14-9-25-24-32-41-3-10-6-20-6-32l0-13c0-2 0-3 0-5 2-11 6-22 11-32 11-19 31-35 51-42 13-4 26-6 40-4 4-7 8-13 13-20 13-16 32-28 53-33 6-2 13-3 22-3l7 0c11 0 22 3 30 6 23 8 40 24 51 43 10-3 21-5 32-5 15 0 29 5 40 12 12 6 21 16 29 25 0 0 2 0 2 0 14-1 30 0 45 3 12 4 24 10 33 16 19 13 34 32 43 53 5 13 8 26 8 40z m-30-44c-7-17-20-32-34-41-8-7-18-10-27-13-11-3-24-5-35-3-2 0-4 0-4 0-1 0-3 0-4 0l-7 0-5-5c-1-2-1-3-3-5 0 0 0-1-1-1-5-8-13-15-21-20-10-4-19-8-31-8-11 0-20 2-30 7l-13 3-5-8c0-2-1-2-1-3 0-2-2-2-2-3-8-16-24-29-40-36-8-3-16-4-24-4l-5 0c-6 0-11 1-16 1-16 3-30 13-40 26-4 5-8 11-11 19 0 2-1 3-1 3l-4 7-6 0c-2 0-3 0-6 0-12-2-23 0-32 3-16 5-29 16-39 32-5 8-6 16-8 24 0 1 0 3 0 5l0 9c0 8 2 16 5 23 6 14 16 27 29 35 0 0 1 0 1 1l5 5-3 5 0 5c-6 16-8 33-5 49 3 16 11 31 23 42 9 8 19 14 30 18 8 3 16 4 24 4l6 0c13 0 24-3 36-9 9-5 17-11 24-19 0 0 1-2 1-2 2-2 2-2 3-3l7-8 8 6c3 2 3 3 5 5 6 6 14 11 22 14 11 5 22 7 35 7 11 0 21-3 31-10 11-6 20-14 28-27 0-2 2-3 4-5l6-6 8 3c6 3 13 5 18 6 14 4 28 4 43-1 17-5 35-15 46-29 13-14 21-34 23-53l0-14c-2-10-5-21-8-31z m-152 120c-26 7-40-8-45-20l-5-20-11 0c-7 0-13-4-13-12 0-8 5-13 13-13l6 0c-3-15-9-51-14-82-2-6-3-14-8-16-5-3-11 0-11 0-7 3-13 0-16-6-4-7 0-13 6-16 2 0 8-3 16-3 5 0 11 1 16 4 11 7 18 18 21 34 6 34 14 75 16 86l17 0c7 0 13 5 13 13 0 8-5 13-13 13l-14 0 3 13c2 1 5 8 16 5 7-2 13 1 15 8 1 4-2 11-8 12z m-79-110c-1 13-11 21-16 24-6 3-11 5-14 5-3 0-5 1-11 3-8 3-12 6-12 6 0 2 0 7 5 10 7 3 21-2 31-5 6-3 12 0 16 5 3 6 0 13-5 16-3 2-31 14-50 5-21-10-21-31-17-39 0-1 4-14 25-22 7-3 11-3 15-5 3 0 4-1 8-3 1-2 3-3 3-6 0-2-2-4-3-5-8-7-28 0-39 5-6 3-13 1-16-5-3-7-1-13 5-16 3-2 21-11 40-11 10 0 18 1 26 8 6 11 11 19 9 30z"/>
<glyph glyph-name="ln-icon-save" unicode="&#57478;" d="M410 512l-359 0c-29 0-51-22-51-51l0-410c0-29 22-51 51-51l410 0c29 0 51 22 51 51l0 359z m-256-102l204 0 0-103-204 0z m256-384l-308 0 0 179 308 0z"/>
<glyph glyph-name="ln-icon-save-o" unicode="&#57479;" d="M128 307c0-14 11-25 26-25l204 0c15 0 26 11 26 25l0 128-256 0z m26 103l204 0 0-103-204 0z m256 102l-359 0c-29 0-51-22-51-51l0-410c0-29 22-51 51-51l410 0c29 0 51 22 51 51l0 359z m0-486l-308 0 0 179 308 0z m76 25c0-14-11-25-25-25l-26 0 0 179c0 14-11 25-25 25l-308 0c-14 0-25-11-25-25l0-179-26 0c-14 0-25 11-25 25l0 410c0 14 11 25 25 25l346 0 89-89z"/>
<glyph glyph-name="ln-icon-search" unicode="&#57480;" d="M509 19l-163 163c30 36 49 82 49 132 0 110-88 198-197 198-110 0-198-88-198-198 0-109 88-199 198-199 52 0 96 19 132 50l163-163c5-5 11-5 16 0 5 6 5 12 0 17z m-311 120c-96 0-174 79-174 175 0 96 78 174 174 174 96 0 175-78 175-174 0-96-79-175-175-175z m-1 327c-83 0-152-68-152-152 0-85 67-152 152-152 85 0 152 67 152 152 0 84-67 152-152 152z"/>
<glyph glyph-name="ln-icon-search-o" unicode="&#57481;" d="M509 19l-163 163c30 36 49 82 49 132 0 110-88 198-197 198-110 0-198-88-198-198 0-109 88-199 198-199 52 0 96 19 132 50l163-163c5-5 11-5 16 0 5 6 5 12 0 17z m-311 120c-96 0-174 79-174 175 0 96 78 174 174 174 96 0 175-78 175-174 0-96-79-175-175-175z"/>
<glyph glyph-name="ln-icon-send" unicode="&#57482;" d="M6 302c-3-1-6-6-6-11 0-5 3-9 8-11l182-75 306 307z m200-113l76-183c1-4 6-6 11-6 5 0 9 3 11 8l208 488z"/>
<glyph glyph-name="ln-icon-send-o" unicode="&#57483;" d="M512 501c0 6-5 11-11 11-2 0-3 0-5-2l-490-208c-3-3-6-6-6-11 0-5 3-9 8-11l194-80 80-194c1-4 6-6 11-6 5 0 9 3 11 8l206 488c2 2 2 3 2 5z m-470-210l408 175-244-244z m249-249l-67 164 242 244z"/>
<glyph glyph-name="ln-icon-settings" unicode="&#57484;" d="M501 291l-53 16c-5 18-11 32-21 48l27 50c5 5 5 11 0 16l-33 33c-5 5-11 5-16 0l-50-27c-14 8-30 16-48 21l-16 53c0 6-5 11-11 11l-46 0c-7 0-12-5-12-11l-16-53c-17-5-33-11-48-21l-51 26c-5 5-11 5-16 0l-32-32c-5-5-5-11 0-16l27-50c-8-14-16-30-20-48l-53-16c-7 0-11-5-11-11l0-46c0-7 4-12 11-12l53-16c4-17 11-32 20-48l-27-49c-5-5-5-11 0-16l34-34c5-5 11-5 16 0l49 27c15-8 31-16 48-20l16-53c0-7 5-11 12-11l46 0c6 0 11 4 11 11l16 53c18 4 34 11 48 20l50-27c5-5 11-5 16 0l33 34c5 5 5 11 0 16l-27 49c8 15 16 31 21 48l53 16c6 0 11 5 11 12l0 46c0 6-5 11-11 11z m-245-105c-38 0-70 32-70 70 0 38 32 70 70 70 38 0 70-32 70-70 0-38-32-70-70-70z"/>
<glyph glyph-name="ln-icon-settings-alt" unicode="&#57485;" d="M11 442l338 0 0-24c0-13 11-24 24-24l24 0c13 0 24 11 24 24l0 24 81 0c5 0 10 6 10 12 0 7-5 12-11 12l-82 0 0 22c0 13-11 24-24 24l-24 0c-13 0-24-11-24-24l0-24-336 0c-6 2-11-3-11-10 0-6 5-12 11-12z m490-175l-315 0 0 24c0 13-12 24-24 24l-23 0c-13 0-24-11-24-24l0-24-104 0c-6 0-11-5-11-11 0-6 5-11 11-11l104 0 0-24c0-13 11-24 24-24l24 0c13 0 24 11 24 24l0 24 314 0c6 0 11 5 11 11 0 6-5 11-11 11z m0-197l-152 0 0 24c0 13-11 24-24 24l-24 0c-13 0-24-11-24-24l0-24-266 0c-6 0-11-6-11-12 0-7 5-12 11-12l267 0 0-24c0-12 12-24 24-24l24 0c13 0 24 12 24 24l0 24 152 0c7 0 12 5 12 12-2 6-7 12-13 12z"/>
<glyph glyph-name="ln-icon-settings-alt-o" unicode="&#57486;" d="M11 442l338 0 0-24c0-13 11-24 24-24l24 0c13 0 24 11 24 24l0 24 81 0c5 0 10 6 10 12 0 7-5 12-11 12l-82 0 0 22c0 13-11 24-24 24l-24 0c-13 0-24-11-24-24l0-24-336 0c-6 2-11-3-11-10 0-6 5-12 11-12z m362 46l24 0 0-70-24 0z m128-221l-315 0 0 24c0 13-12 24-24 24l-23 0c-13 0-24-11-24-24l0-24-104 0c-6 0-11-5-11-11 0-6 5-11 11-11l104 0 0-24c0-13 11-24 24-24l24 0c13 0 24 11 24 24l0 24 314 0c6 0 11 5 11 11 0 6-5 11-11 11z m-338-46l-24 0 0 70 24 0z m338-151l-152 0 0 24c0 13-11 24-24 24l-24 0c-13 0-24-11-24-24l0-24-266 0c-6 0-11-6-11-12 0-7 5-12 11-12l267 0 0-24c0-12 12-24 24-24l24 0c13 0 24 12 24 24l0 24 152 0c7 0 12 5 12 12-2 6-7 12-13 12z m-175-46l-24 0 0 70 24 0z"/>
<glyph glyph-name="ln-icon-settings-o" unicode="&#57487;" d="M501 291l-53 16c-5 18-11 32-21 48l27 50c5 5 5 11 0 16l-33 33c-5 5-11 5-16 0l-50-27c-14 8-30 16-48 21l-16 53c0 6-5 11-11 11l-46 0c-7 0-12-5-12-11l-16-53c-17-5-33-11-48-21l-51 26c-5 5-11 5-16 0l-32-32c-5-5-5-11 0-16l27-50c-8-14-16-30-20-48l-53-16c-7 0-11-5-11-11l0-46c0-7 4-12 11-12l53-16c4-17 11-32 20-48l-27-49c-5-5-5-11 0-16l34-34c5-5 11-5 16 0l49 27c15-8 31-16 48-20l16-53c0-7 5-11 12-11l46 0c6 0 11 4 11 11l16 53c18 4 34 11 48 20l50-27c5-5 11-5 16 0l33 34c5 5 5 11 0 16l-27 49c8 15 16 31 21 48l53 16c6 0 11 5 11 12l0 46c0 5-5 11-11 11z m-13-51l-61-18c-5-22-13-44-25-62l30-56-22-24-56 30c-20-12-40-22-64-25l-18-61-32 0-18 62c-22 5-44 13-62 26l-58-32-22 22 30 56c-12 20-20 40-25 63l-61 19 0 32 62 18c5 22 13 44 26 62l-32 58 22 22 56-32c20 13 40 21 63 26l19 62 32 0 18-61c22-5 44-13 62-25l58 30 22-22-30-56c12-20 22-40 25-63l63-17 0-34z m-232 109c-51 0-93-42-93-93 0-51 42-93 93-93 51 0 93 42 93 93 0 51-42 93-93 93z m0-163c-38 0-70 32-70 70 0 38 32 70 70 70 38 0 70-32 70-70 0-38-32-70-70-70z"/>
<glyph glyph-name="ln-icon-share" unicode="&#57488;" d="M445 499c-37 0-67-30-67-67 0-5 0-10 1-14l-257-112c-13 17-32 28-56 28-36 2-66-28-66-65 0-37 30-67 67-67 19 0 35 8 48 20l171-115c-3-8-6-17-6-27 0-37 30-67 67-67 37 0 67 30 67 67 0 37-30 67-67 67-19 0-35-8-48-21l-171 116c3 8 6 17 6 27 0 5 0 9-1 14l257 112c13-17 32-29 56-29 37 0 68 31 68 68 0 36-32 65-69 65z"/>
<glyph glyph-name="ln-icon-share-alt" unicode="&#57489;" d="M406 163c-6 0-11-5-11-11l0-82-371 0 0 279 104 0c6 0 11 5 11 11 0 6-5 11-11 11l-117 0c-6 2-11-5-11-11l0-302c0-7 5-12 11-12l395 0c7 0 12 5 12 12l0 92c1 8-5 13-12 13z m106 139c0 4-2 7-3 8l-163 152c-2 2-5 4-8 4-7 0-12-5-12-12l0-81c-49-5-233-27-233-199l0-30c0 0 61 107 232 112l0-82c0-6 5-11 11-11 3 0 5 2 6 3l162 127c6 3 8 6 8 9z"/>
<glyph glyph-name="ln-icon-share-alt-o" unicode="&#57490;" d="M406 163c-6 0-11-5-11-11l0-82-371 0 0 279 104 0c6 0 11 5 11 11 0 6-5 11-11 11l-117 0c-6 2-11-5-11-11l0-302c0-7 5-12 11-12l395 0c7 0 12 5 12 12l0 92c1 8-5 13-12 13z m106 139c0 4-2 7-3 8l-163 152c-2 2-5 4-8 4-7 0-12-5-12-12l0-81c-49-5-233-27-233-199l0-30c0 0 61 107 232 112l0-82c0-6 5-11 11-11 3 0 5 2 6 3l162 127c6 3 8 6 8 9z m-163-104l0 69c0 7-5 11-11 11-119 0-186-41-218-70 10 54 45 94 106 118 52 21 107 23 112 23 6 0 11 5 11 11l0 67 133-123z"/>
<glyph glyph-name="ln-icon-share-o" unicode="&#57491;" d="M445 499c-37 0-67-30-67-67 0-5 0-10 1-14l-257-112c-13 17-32 28-56 28-36 2-66-28-66-65 0-37 30-67 67-67 19 0 35 8 48 20l171-115c-3-8-6-17-6-27 0-37 30-67 67-67 37 0 67 30 67 67 0 37-30 67-67 67-19 0-35-8-48-21l-171 116c3 8 6 17 6 27 0 5 0 9-1 14l257 112c13-17 32-29 56-29 37 0 68 31 68 68 0 36-32 65-69 65z m-98-377c24 0 43-20 43-44 0-24-19-43-43-43-24 0-43 19-43 43 0 24 19 44 43 44z m-280 104c-24 0-43 19-43 43 0 24 19 43 43 43 24 0 43-19 43-43 0-24-19-43-43-43z m378 164c-24 0-43 20-43 44 0 24 19 43 43 43 24 0 43-19 43-43 0-24-19-44-43-44z"/>
<glyph glyph-name="ln-icon-shuffle" unicode="&#57492;" d="M11 349l157 0 51-67 15 19-50 67c-2 3-5 5-10 5l-163 0c-6 0-11-7-11-13 0-6 5-11 11-11z m461 0l-27-27c-2-2-3-5-3-8 0-7 4-12 11-12 3 0 6 2 8 4l46 46c3 3 5 5 5 8 0 3-2 6-3 8l-47 48c-1 2-4 3-8 3-6 0-11-5-11-11 0-3 2-6 3-8l28-27-135 0c-3 0-6-2-9-5l-160-205-159 0c-6 0-11-5-11-11 0-6 5-11 11-11l163 0c4 0 7 1 10 5l160 204 128 0z m-10-143c-1 2-4 4-8 4-6 0-11-5-11-12 0-3 2-6 3-8l28-27-130 0-51 67-15-19 52-65c1-4 4-5 9-5l135 0-28-27c-1-2-3-5-3-8 0-7 5-12 11-12 4 0 7 2 8 4l47 46c1 2 3 5 3 8 0 3-2 6-3 8z"/>
<glyph glyph-name="ln-icon-star" unicode="&#57493;" d="M512 320l-202 0-54 179-54-179-202 0 162-120-55-187 149 107 149-107-55 187z"/>
<glyph glyph-name="ln-icon-star-o" unicode="&#57494;" d="M512 320l-202 0-54 179-54-179-202 0 162-122-55-185 149 107 149-107-55 187z m-149-250l-107 79-107-79 40 138-119 88 149 0 37 125 38-123 149 0-118-88z"/>
<glyph glyph-name="ln-icon-tag" unicode="&#57495;" d="M477 512l-186 0c-9 0-17-3-24-10l-256-256c-8-6-11-16-11-25 0-10 3-18 10-24l185-186c7-6 15-9 24-9 10 0 18 3 24 9l256 256c7 7 10 15 10 24l0 186c3 19-13 35-32 35z m-69-128c-13 0-24 11-24 24 0 13 11 24 24 24 13 0 24-11 24-24-2-13-11-24-24-24z"/>
<glyph glyph-name="ln-icon-tag-o" unicode="&#57496;" d="M477 512l-186 0c-9 0-17-3-24-10l-256-256c-8-6-11-16-11-25 0-10 3-18 10-24l185-186c7-6 15-9 24-9 10 0 18 3 24 9l256 256c7 7 10 15 10 24l0 186c3 19-13 35-32 35z m11-221c0-3-2-6-3-8l-256-256c-2-1-5-3-8-3-3 0-7 2-8 3l-186 186c-1 1-3 5-3 8 0 3 2 6 3 8l256 256c2 1 5 3 8 3l186 0c6 0 11-5 11-11z m-80 163c-26 0-46-20-46-46 0-26 20-46 46-46 26 0 46 20 46 46 0 26-20 46-46 46z m0-70c-13 0-24 11-24 24 0 13 11 24 24 24 13 0 24-11 24-24-2-13-11-24-24-24z"/>
<glyph glyph-name="ln-icon-trash" unicode="&#57497;" d="M454 442l-92 0 0 24c0 25-21 46-47 46l-117 0c-25 0-46-21-46-46l0-24-94 0c-7 0-12-5-12-12 0-6 5-11 12-11l11 0 24-373c0-25 21-46 46-46l232 0c26 0 47 21 47 46l24 373 11 0c6 0 11 5 11 11 2 7-3 12-10 12z m-280 24c0 12 12 24 24 24l117 0c13 0 24-12 24-24l0-24-165 0z m13-396c-6 0-11 5-13 12l-11 278c0 6 5 11 11 13 7 0 12-5 13-11l11-280c0-7-4-12-11-12z m80 12c0-7-5-12-11-12-6 0-11 5-11 12l0 278c0 6 5 11 11 11 6 0 11-5 11-11z m71-2c0-6-7-11-13-11-7 0-11 6-11 13l11 278c0 6 6 11 13 11 6 0 11-6 11-13z"/>
<glyph glyph-name="ln-icon-trash-o" unicode="&#57498;" d="M187 70c7 0 11 7 11 13l-12 279c0 6-7 11-13 11-7 0-11-7-11-13l12-280c0-6 7-11 13-10z m69 0c6 0 11 5 11 12l0 278c0 6-5 11-11 11-6 0-11-5-11-11l0-280c0-5 5-10 11-10z m198 372l-92 0 0 24c0 25-21 46-47 46l-117 0c-25 0-46-21-46-46l0-24-94 0c-7 0-12-5-12-12 0-6 5-11 12-11l11 0 24-373c0-25 21-46 46-46l232 0c26 0 47 21 47 46l24 373 11 0c6 0 11 5 11 11 2 7-3 12-10 12z m-280 24c0 12 12 24 24 24l117 0c13 0 24-12 24-24l0-24-165 0z m221-420c0-12-11-24-24-24l-232 0c-13 0-24 12-24 24l-22 373 326 0z m-70 24c6 0 11 5 13 12l11 278c0 6-5 11-11 13-7 0-12-5-13-11l-11-279c0-8 4-13 11-13z"/>
<glyph glyph-name="ln-icon-triangle-down" unicode="&#57499;" d="M392 325c0 6-5 11-11 11l-251 0c-7 0-12-5-12-11 0-3 2-5 4-7l126-136c2-1 5-3 8-3 3 0 6 2 8 3l126 136c0 0 2 4 2 7z"/>
<glyph glyph-name="ln-icon-triangle-left" unicode="&#57500;" d="M325 392c-3 0-5-2-7-3l-136-127c-1-1-3-4-3-8 0-3 2-6 3-8l136-126c2-2 5-3 7-3 6 0 11 5 11 11l0 254c-2 5-6 10-11 10z"/>
<glyph glyph-name="ln-icon-triangle-right" unicode="&#57501;" d="M334 256c0 3-1 6-3 8l-136 126c-1 2-5 4-6 4-7 0-11-5-11-12l0-251c0-6 4-11 11-11 3 0 5 2 6 3l136 127c2 0 3 3 3 6z"/>
<glyph glyph-name="ln-icon-triangle-up" unicode="&#57502;" d="M389 195l-125 136c-2 2-5 3-8 3-3 0-6-1-8-3l-126-136c-2-1-4-5-4-6 0-7 5-11 12-11l251 0c6 0 11 4 11 11 0 1-2 5-3 6z"/>
<glyph glyph-name="ln-icon-undo" unicode="&#57503;" d="M256 512c-86 0-163-43-210-109l0 74c0 6-4 11-11 11-6 0-11-5-11-11l0-117c0-6 5-11 11-11l117 0c6 0 11 5 11 11 0 6-5 13-11 13l-96 0c38 69 114 115 200 115 128 0 232-104 232-232 0-128-104-232-232-232-128 0-232 104-232 232 0 6-5 11-11 11-8 0-13-5-13-11l0 2c0-2 0-2 0-2 0-141 115-256 256-256 101 0 189 59 230 144 2 2 2 2 2 3 16 32 24 69 24 107 0 143-115 258-256 258z"/>
<glyph glyph-name="ln-icon-upload" unicode="&#57504;" d="M384 202c-58 0-70-63-93-63-22 0-35 0-35 0 0 0-11 0-35 0-24 0-39 63-93 63l-114 0c-8 0-14-7-14-15l0-173c0-8 6-14 14-14l484 0c8 0 14 6 14 14l0 173c0 8-6 15-14 15z m-45 235l-70 70c-8 8-21 8-27 0l-71-70c-3-3-6-8-6-15 0-11 9-19 19-19 5 0 10 2 14 7l37 36 0-256c0-11 10-19 19-19 10 0 20 8 20 19l0 256 36-36c4-4 8-7 15-7 11 0 19 10 19 19 2 5 0 12-5 15z"/>
<glyph glyph-name="ln-icon-upload-o" unicode="&#57505;" d="M384 202c-58 0-70-63-93-63-22 0-35 0-35 0 0 0-11 0-35 0-24 0-39 63-93 63l-114 0c-8 0-14-7-14-15l0-173c0-8 6-14 14-14l484 0c8 0 14 6 14 14l0 173c0 8-6 15-14 15z m104-178l-464 0 0 155 104 0c46 0 46-62 93-62l70 0c47 0 47 62 93 62 35 0 83 0 104 0z m-149 413l-70 70c-8 8-21 8-27 0l-71-70c-3-3-6-8-6-15 0-11 9-19 19-19 5 0 10 2 14 7l37 36 0-256c0-11 10-19 19-19 10 0 20 8 20 19l0 256 36-36c4-4 8-7 15-7 11 0 19 10 19 19 2 5 0 12-5 15z"/>
<glyph glyph-name="ln-icon-user" unicode="&#57506;" d="M256 512c-141 0-256-115-256-256 0-141 115-256 256-256 141 0 256 115 256 256 0 141-115 256-256 256z m0-488c-64 0-123 26-165 69 21 17 48 32 87 48l11 5c33 35-7 92-10 97-3 3-17 23-11 48-3 13-18 67 8 104 14 21 40 32 75 32 34 8 59 3 75-16 29-32 24-89 20-110 1-8 4-26-10-55-3-4-5-9-8-16-19-35-30-60-3-83 9-3 57-19 94-56-41-41-99-67-163-67z"/>
<glyph glyph-name="ln-icon-user-o" unicode="&#57507;" d="M256 512c-141 0-256-115-256-256 0-141 115-256 256-256 141 0 256 115 256 256 0 141-115 256-256 256z m163-422c-37 36-85 52-94 56-27 22-16 48 3 83 3 5 6 11 8 16 14 29 11 48 10 54 6 21 11 79-20 111-17 19-43 24-75 16-35 0-61-12-75-32-26-37-13-92-8-104-8-26 8-45 11-48 3-5 43-63 10-98l-11-5c-39-17-66-30-87-48-41 43-67 101-67 165 0 128 104 232 232 232 128 0 232-104 232-232 0-66-26-123-69-166z"/>
<glyph glyph-name="ln-icon-x" unicode="&#57508;" d="M283 256l168 166c8 8 8 21 0 28-8 8-21 8-27 0l-168-167-166 168c-5 3-10 5-15 5-5 0-11-2-14-5-8-8-8-21 0-27l168-168-168-166c-8-8-8-21 0-28 3-3 9-6 14-6 5 0 10 2 15 6l166 167 166-167c8-8 21-8 28 0 6 8 8 21 0 28z"/>
<glyph glyph-name="ln-icon-zoom-in" unicode="&#57509;" d="M509 19l-163 163c30 36 49 82 49 132 0 110-88 198-197 198-110 0-198-88-198-198 0-109 88-199 198-199 52 0 96 19 132 50l163-163c5-5 11-5 16 0 5 6 5 12 0 17z m-229 275l-62 0 0-62c0-11-10-19-20-19-9 0-19 9-19 19l0 62-62 0c-11 0-21 10-21 20 0 9 10 19 19 19l63 0 0 62c0 11 9 19 19 19 9 0 19-9 19-19l0-62 62 0c12 0 20-10 20-19 0-10-8-20-18-20z"/>
<glyph glyph-name="ln-icon-zoom-in-o" unicode="&#57510;" d="M509 19l-163 163c30 36 49 82 49 132 0 110-88 198-197 198-110 0-198-88-198-198 0-109 88-199 198-199 52 0 96 19 132 50l163-163c5-5 11-5 16 0 5 6 5 12 0 17z m-311 120c-96 0-174 79-174 175 0 96 78 174 174 174 96 0 175-78 175-174 0-96-79-175-175-175z m82 195l-62 0 0 61c0 11-10 21-20 21-9 0-19-10-19-19l0-63-62 0c-11 0-19-9-19-19 0-9 9-19 19-19l62 0 0-62c0-12 10-20 19-20 10 0 20 10 20 20l0 62 62 0c11 0 19 10 19 19 0 10-9 19-19 19z"/>
<glyph glyph-name="ln-icon-zoom-out" unicode="&#57511;" d="M509 19l-163 163c30 36 49 82 49 132 0 110-88 198-197 198-110 0-198-88-198-198 0-109 88-199 198-199 52 0 96 19 132 50l163-163c5-5 11-5 16 0 5 6 5 12 0 17z m-392 275c-11 0-21 10-21 20 0 9 10 19 19 19l163 0c12 0 20-10 20-19 0-10-10-20-20-20z"/>
<glyph glyph-name="ln-icon-zoom-out-o" unicode="&#57512;" d="M509 19l-163 163c30 36 49 82 49 132 0 110-88 198-197 198-110 0-198-88-198-198 0-109 88-199 198-199 52 0 96 19 132 50l163-163c5-5 11-5 16 0 5 6 5 12 0 17z m-311 120c-96 0-174 79-174 175 0 96 78 174 174 174 96 0 175-78 175-174 0-96-79-175-175-175z m82 195l-163 0c-11 0-19-9-19-19 0-9 9-19 19-19l163 0c11 0 19 10 19 19 0 10-9 19-19 19z"/>
<glyph glyph-name="ln-icon-more" unicode="&#57458;" d="M442 326c-39 0-71-32-71-70 0-38 32-70 71-70 38 0 70 32 70 70 0 38-32 70-70 70z m-372 0c-38 0-70-32-70-70 0-38 32-70 70-70 39 0 71 32 71 70 0 38-32 70-71 70z m186 0c-38 0-70-32-70-70 0-38 32-70 70-70 38 0 70 32 70 70 0 38-32 70-70 70z"/>
<glyph glyph-name="ln-icon-circle-check" unicode="&#57513;" d="M256 512c-141 0-256-115-256-256 0-141 115-256 256-256 141 0 256 115 256 256 0 141-115 256-256 256z m118-200l-139-139c-3-3-8-7-14-7-7 0-10 2-15 7l-70 70c-3 3-6 8-6 15 0 11 9 19 19 19 5 0 9-2 14-7l56-56 127 127c3 3 8 6 14 6 11 0 19-9 19-19 2-8-1-13-5-16z"/>
<glyph glyph-name="ln-icon-circle-check-o" unicode="&#57514;" d="M256 512c-141 0-256-115-256-256 0-141 115-256 256-256 141 0 256 115 256 256 0 141-115 256-256 256z m0-488c-128 0-232 104-232 232 0 128 104 232 232 232 128 0 232-104 232-232 0-128-104-232-232-232z m104 322c-5 0-10-2-14-7l-127-126-56 56c-3 3-8 6-14 6-11 0-19-9-19-19 0-5 1-10 6-14l70-71c4-3 8-6 15-6 6 0 9 1 14 6l139 139c4 4 7 8 7 15 0 11-10 21-21 21z"/>
</font>
</defs>
</svg>
